<?xml version="1.0" encoding="UTF-8"?>
<svg width="381px" height="340px" viewBox="0 0 381 340" version="1.1" xmlns="http://www.w3.org/2000/svg" xmlns:xlink="http://www.w3.org/1999/xlink">
    <title>Mask Group(6)</title>
    <g id="Page-1" stroke="none" stroke-width="1" fill="none" fill-rule="evenodd">
        <g id="Mask-Group(6)" transform="translate(-0.000000, 0.000000)" fill-rule="nonzero">
            <path d="M70.9252945,0.343485764 L82.1744945,38.2749858 C93.7436945,46.3159858 106.381695,55.6599858 119.136695,66.0819858 L106.744695,7.09288576 L107.610695,7.32198576 C94.7326945,3.25028576 82.0395945,0.802685764 70.0720945,0.167885764 L70.9252945,0.343485764 Z" id="Path" fill="#24A148"></path>
            <path d="M80.1416945,36.8669858 L69.2453945,0.124385764 C55.8267945,-0.495214236 43.3436945,1.18678576 32.5776945,5.46668576 C32.0175945,5.68938576 31.4703945,5.92268576 30.9247945,6.15728576 C34.3550945,8.02568576 54.3911945,19.1131858 80.1416945,36.8669858 Z" id="Path" fill="#24A148"></path>
            <path d="M192.484695,58.8739858 L193.365695,59.2899858 C189.193695,55.2269858 184.870695,51.3399858 180.395695,47.6289858 L175.626695,120.737986 L175.213695,120.562986 C177.420695,123.201986 179.549695,125.837986 181.599695,128.471986 L192.484695,58.8739858 Z" id="Path" fill="#24A148"></path>
            <path d="M151.680695,27.5358858 L152.566695,27.8668858 C139.016695,19.5904858 124.226695,12.7914858 108.504695,7.61208576 L121.131695,67.7249858 C133.028695,77.5439858 143.932695,87.4069858 153.843695,97.3139858 L151.680695,27.5358858 Z" id="Path" fill="#24A148"></path>
            <path d="M5.17269452,81.6599858 C8.70919452,91.4609858 13.4348945,100.851986 19.2777945,109.688986 L145.828695,91.2029858 C137.013695,82.7709858 128.133695,75.0039858 119.644695,68.0179858 L5.67899452,82.3989858 L5.17269452,81.6599858 Z" id="Path" fill="#24A148"></path>
            <path d="M26.4127945,119.786986 L25.8880945,119.053986 L153.617695,98.8519858 C151.520695,96.7349858 149.413695,94.6559858 147.296695,92.6129858 L20.2795945,111.167986 L19.7613945,110.431986 C21.8176945,113.547986 24.0348945,116.665986 26.4127945,119.786986 Z" id="Path" fill="#24A148"></path>
            <path d="M178.647695,46.5389858 L179.532695,46.9159858 C171.390695,40.2189858 162.679695,34.0356858 153.459695,28.4069858 L155.651695,99.1279858 C162.212695,105.768986 168.301695,112.405986 173.918695,119.038986 L178.647695,46.5389858 Z" id="Path" fill="#24A148"></path>
            <path d="M202.493695,159.931986 C211.712695,176.755986 217.601695,193.326986 220.078695,209.467986 C224.168695,195.349986 238.729695,137.422986 217.436695,91.6299858 L202.493695,159.931986 Z" id="Path" fill="#24A148"></path>
            <path d="M57.9934945,150.756986 C66.3891945,156.654986 75.2877945,162.032986 84.6296945,166.856986 L84.1146945,166.025986 L200.290695,158.930986 C195.023695,149.564986 189.072695,140.522986 182.468695,131.851986 L57.9934945,150.756986 Z" id="Path" fill="#24A148"></path>
            <path d="M79.3256945,37.7219858 C51.4591945,18.5196858 30.3717945,7.19938576 30.0686945,7.03768576 L30.2355945,6.45598576 C14.1878945,13.5806858 4.56819452,25.8913858 1.28329452,41.2099858 L79.3256945,37.7219858 Z" id="Path" fill="#24A148"></path>
            <path d="M183.171695,130.517986 C183.799695,131.338986 184.435695,132.160986 185.047695,132.980986 C190.941695,140.837986 196.299695,148.996986 201.097695,157.421986 L215.898695,89.7679858 L216.748695,90.1949858 C212.917695,82.1649858 207.861695,74.6639858 201.701695,67.8719858 C199.265695,65.2129858 196.760695,62.6189858 194.185695,60.0909858 L183.171695,130.517986 Z" id="Path" fill="#24A148"></path>
            <path d="M117.946695,66.6279858 C105.326695,56.3319858 92.8336945,47.1029858 81.3981945,39.1569858 L1.56509452,42.7239858 L1.11699452,41.9809858 C-1.19370548,53.5779858 0.0855945172,66.8569858 4.90899452,80.8919858 L117.946695,66.6279858 Z" id="Path" fill="#24A148"></path>
            <path d="M201.117695,160.422986 L85.7926945,167.465986 C141.797695,196.404986 214.225695,211.670986 218.843695,212.626986 C216.655695,194.591986 210.208695,177.053986 201.117695,160.422986 Z" id="Path" fill="#24A148"></path>
            <path d="M181.298695,130.398986 L181.308695,130.331986 C173.225695,119.871986 164.448695,109.835986 155.014695,100.268986 L26.9698945,120.520986 C30.2148945,124.734986 33.7499945,128.933986 37.5749945,133.117986 C43.1102945,139.058986 49.3148945,144.512986 56.1117945,149.411986 L181.298695,130.398986 Z" id="Path" fill="#24A148"></path>
            <path d="M337.085695,74.4619858 L316.601695,111.767986 C318.854695,124.671986 320.895695,139.226986 322.207695,154.732986 L357.727695,99.4919858 L358.176695,100.150986 C351.993695,89.7999858 344.721695,80.8839858 336.604695,73.8539858 L337.085695,74.4619858 Z" id="Path" fill="#24A148"></path>
            <path d="M316.201695,109.504986 L336.043695,73.3689858 C326.873695,65.5619858 316.642695,60.1559858 305.687695,57.8199858 C305.117695,57.6979858 304.548695,57.5919858 303.980695,57.4889858 C305.037695,60.8899858 311.077695,80.9029858 316.201695,109.504986 Z" id="Path" fill="#24A148"></path>
            <path d="M380.311695,188.695986 L380.630695,189.517986 C380.694695,183.908986 380.516695,178.361986 380.096695,172.875986 L321.620695,230.393986 L321.456695,230.024986 C321.054695,233.395986 320.597695,236.720986 320.087695,240.000986 L380.311695,188.695986 Z" id="Path" fill="#24A148"></path>
            <path d="M374.605695,140.738986 L374.992695,141.492986 C371.493695,127.318986 365.990695,113.684986 358.600695,100.875986 L322.402695,157.168986 C323.553695,171.712986 323.958695,185.751986 323.615695,199.287986 L374.605695,140.738986 Z" id="Path" fill="#24A148"></path>
            <path d="M228.632695,105.562986 C223.792695,115.544986 220.114695,125.835986 217.656695,136.279986 L322.462141,189.903986 C322.479695,178.176986 321.951695,166.961986 321.114695,156.600986 L228.439695,106.445986 L228.632695,105.562986 Z" id="Path" fill="#24A148"></path>
            <path d="M215.177695,148.462986 L215.352695,147.574986 L322.295695,200.428986 C322.382695,197.548986 322.435695,194.692986 322.453695,191.861986 L217.262695,138.040986 L217.444695,137.153986 C216.575695,140.833986 215.819695,144.603986 215.177695,148.462986 Z" id="Path" fill="#24A148"></path>
            <path d="M379.662695,171.028986 L380.014695,171.820986 C379.209695,161.886986 377.609695,152.064986 375.226695,142.422986 L323.547695,201.762986 C323.259695,210.790986 322.634695,219.559986 321.673695,228.067986 L379.662695,171.028986 Z" id="Path" fill="#24A148"></path>
            <path d="M311.403695,277.231986 C305.355695,296.077986 297.106695,312.905986 286.731695,327.523986 C300.299695,318.139986 354.375695,278.430986 373.565695,229.198986 L311.403695,277.231986 Z" id="Path" fill="#24A148"></path>
            <path d="M214.536695,191.101986 C216.125695,200.516986 218.466695,209.778986 221.542695,218.824986 L221.798695,217.861986 L310.573695,275.209986 C313.844695,264.644986 316.379695,253.973986 318.165695,243.253986 L214.536695,191.101986 Z" id="Path" fill="#24A148"></path>
            <path d="M314.972695,109.763986 C309.418695,78.8209858 302.798695,58.0449858 302.702695,57.7469858 L303.260695,57.3589858 C286.370695,54.4899858 270.192695,59.3799858 256.298695,70.1889858 L314.972695,109.763986 Z" id="Path" fill="#24A148"></path>
            <path d="M319.674695,242.538986 C319.507695,243.554986 319.345695,244.576986 319.168695,245.583986 C317.484695,255.248986 315.189695,264.870986 312.290695,274.408986 L373.863695,226.830986 L374.152695,227.644986 C377.448695,218.958986 379.465695,210.041986 380.155695,201.106986 C380.408695,197.596986 380.562695,194.101986 380.616695,190.622986 L319.674695,242.538986 Z" id="Path" fill="#24A148"></path>
            <path d="M320.941695,154.534986 C319.631695,139.205986 317.609695,124.823986 315.380695,112.070986 L255.360695,71.5869858 L255.598695,70.7319858 C245.206695,79.0109858 236.125695,90.6249858 229.022695,104.787986 L320.941695,154.534986 Z" id="Path" fill="#24A148"></path>
            <path d="M310.045695,276.886986 L221.919695,219.957986 C240.349695,274.209986 280.868695,326.152986 283.466695,329.449986 C295.474695,313.430986 304.050695,295.505986 310.045695,276.886986 Z" id="Path" fill="#24A148"></path>
            <path d="M318.419695,241.421986 L318.477695,241.372986 C320.549695,228.375986 321.802695,215.350986 322.230695,202.353986 L215.024695,149.368986 C214.181695,154.598986 213.558695,159.973986 213.155695,165.493986 C212.656695,173.388986 213.005695,181.247986 214.198695,188.972986 L318.419695,241.421986 Z" id="Path" fill="#24A148"></path>
            <path d="M70.3582945,180.523986 L95.1816945,212.676986 C109.410695,217.072986 125.157695,222.391986 141.412695,228.679986 L107.789695,177.332986 L108.718695,177.315986 C94.6606945,176.940986 81.3761945,178.019986 69.4613945,180.586986 L70.3582945,180.523986 Z" id="Path" fill="#24A148"></path>
            <path d="M92.6836945,211.909986 L68.6383945,180.763986 C55.3125945,183.726986 43.7397945,188.573986 34.7912945,195.373986 C34.3257945,195.727986 33.8767945,196.087986 33.4296945,196.448986 C37.4603945,197.274986 61.0664945,202.258986 92.6836945,211.909986 Z" id="Path" fill="#24A148"></path>
            <path d="M210.388695,202.674986 L211.400695,202.827986 C205.845695,200.165986 200.206695,197.706986 194.483695,195.449986 L216.506695,264.392986 L216.039695,264.338986 C219.156695,266.200986 222.197695,268.080986 225.159695,269.977986 L210.388695,202.674986 Z" id="Path" fill="#24A148"></path>
            <path d="M159.118695,184.415986 L160.104695,184.488986 C143.855695,180.397986 126.935695,178.000986 109.697695,177.348986 L143.960695,229.675986 C159.158695,235.629986 173.402695,241.886986 186.692695,248.446986 L159.118695,184.415986 Z" id="Path" fill="#24A148"></path>
            <path d="M35.8415945,273.137986 C42.8706945,281.280986 50.9109945,288.728986 59.8398945,295.370986 L176.637695,244.901986 C164.955695,239.418986 153.452695,234.568986 142.615695,230.338986 L36.6055945,273.688986 L35.8415945,273.137986 Z" id="Path" fill="#24A148"></path>
            <path d="M70.4901945,302.838986 L69.7104945,302.298986 L187.033695,249.930986 C184.213695,248.523986 181.397695,247.153986 178.586695,245.820986 L61.3575945,296.475986 L60.5832945,295.930986 C63.7276945,298.273986 67.0299945,300.575986 70.4901945,302.838986 Z" id="Path" fill="#24A148"></path>
            <path d="M192.378695,194.901986 L193.380695,195.017986 C182.988695,190.963986 172.228695,187.534986 161.172695,184.752986 L189.120695,249.650986 C197.948695,254.069986 206.314695,258.609986 214.218695,263.269986 L192.378695,194.901986 Z" id="Path" fill="#24A148"></path>
            <path d="M257.037695,293.598986 C272.176695,306.743986 283.973695,320.533986 292.280695,334.824986 C291.121695,320.675986 284.198695,263.208986 246.700695,226.424986 L257.037695,293.598986 Z" id="Path" fill="#24A148"></path>
            <path d="M112.622695,323.188986 C122.970695,326.434986 133.620695,329.069986 144.500695,331.073986 L143.694695,330.440986 L254.521695,293.252986 C245.961695,285.969986 236.851695,279.165986 227.241695,272.879986 L112.622695,323.188986 Z" id="Path" fill="#24A148"></path>
            <path d="M92.1986945,212.915986 C57.9873945,202.482986 33.2699945,197.559986 32.9150945,197.489986 L32.8657945,196.906986 C19.7991945,207.732986 14.9003945,221.665986 17.2836945,236.713986 L92.1986945,212.915986 Z" id="Path" fill="#24A148"></path>
            <path d="M227.440695,271.458986 C228.353695,272.053986 229.273695,272.646986 230.171695,273.244986 C238.791695,278.964986 246.999695,285.106986 254.758695,291.641986 L244.519695,225.105986 L245.505695,225.276986 C238.835695,218.852986 231.162695,213.240986 222.669695,208.575986 C219.321695,206.756986 215.929695,205.015986 212.493695,203.352986 L227.440695,271.458986 Z" id="Path" fill="#24A148"></path>
            <path d="M140.450695,229.498986 C124.373695,223.292986 108.809695,218.040986 94.7456945,213.697986 L18.1113945,238.040986 L17.4026945,237.470986 C19.3788945,248.816986 25.4736945,260.773986 35.3037945,272.495986 L140.450695,229.498986 Z" id="Path" fill="#24A148"></path>
            <path d="M255.873695,294.414986 L145.857695,331.330986 C211.092695,343.361986 287.370695,338.407986 292.228695,338.074986 C283.510695,321.954986 270.817695,307.416986 255.873695,294.414986 Z" id="Path" fill="#24A148"></path>
            <path d="M225.568695,271.841986 L225.554695,271.777986 C213.846695,264.223986 201.615695,257.245986 188.913695,250.874986 L71.3019945,303.371986 C76.0076945,306.417986 80.9910945,309.373986 86.2516945,312.238986 C93.8236945,316.280986 101.871695,319.694986 110.294695,322.438986 L225.568695,271.841986 Z" id="Path" fill="#24A148"></path>
            <path d="M277.394695,334.622986 L121.523695,334.622986 C117.828695,334.617986 114.286695,332.682986 111.674695,329.242986 C109.061695,325.802986 107.592695,321.138986 107.588695,316.273986 L107.588695,18.6208858 C107.592695,13.7560858 109.061695,9.09218576 111.674695,5.65228576 C114.286695,2.21238576 117.828695,0.277485764 121.523695,0.271985764 L277.394695,0.271985764 C281.089695,0.277485764 284.631695,2.21238576 287.243695,5.65228576 C289.855695,9.09218576 291.325695,13.7560858 291.329695,18.6208858 L291.329695,316.273986 C291.325695,321.138986 289.855695,325.802986 287.243695,329.242986 C284.631695,332.682986 281.089695,334.617986 277.394695,334.622986 Z" id="Path" fill="#3F3D56"></path>
            <path d="M277.669695,322.915986 L121.248695,322.915986 C120.109695,322.915986 119.018695,322.317986 118.212695,321.257986 C117.407695,320.196986 116.953695,318.759986 116.953695,317.259986 L116.953695,17.6351858 C116.953695,16.1355858 117.407695,14.6978858 118.212695,13.6374858 C119.018695,12.5771858 120.109695,11.9789858 121.248695,11.9789858 L277.669695,11.9789858 C278.807695,11.9789858 279.899695,12.5771858 280.705695,13.6374858 C281.510695,14.6978858 281.964695,16.1355858 281.964695,17.6351858 L281.964695,317.259986 C281.964695,318.759986 281.510695,320.196986 280.705695,321.257986 C279.899695,322.317986 278.807695,322.915986 277.669695,322.915986 Z" id="Path" fill="#FFFFFF"></path>
            <polygon id="Path" fill="#FFFFFF" points="274.269695 282.271986 130.269695 282.271986 130.269695 236.271986 274.269695 236.271986"></polygon>
            <path d="M148.928695,270.956986 C153.246695,270.956986 156.747695,265.725986 156.747695,259.271986 C156.747695,252.817986 153.246695,247.586986 148.928695,247.586986 C144.610695,247.586986 141.110695,252.817986 141.110695,259.271986 C141.110695,265.725986 144.610695,270.956986 148.928695,270.956986 Z" id="Path" fill="#E6E6E6"></path>
            <path d="M166.986695,251.481986 C166.640695,251.481986 166.309695,251.686986 166.064695,252.051986 C165.820695,252.416986 165.683695,252.912986 165.683695,253.428986 C165.683695,253.945986 165.820695,254.440986 166.064695,254.805986 C166.309695,255.171986 166.640695,255.376986 166.986695,255.376986 L262.128695,255.376986 C262.473695,255.375986 262.804695,255.169986 263.047695,254.804986 C263.291695,254.439986 263.428695,253.944986 263.428695,253.428986 C263.428695,252.913986 263.291695,252.418986 263.047695,252.053986 C262.804695,251.688986 262.473695,251.482986 262.128695,251.481986 L166.986695,251.481986 Z" id="Path" fill="#E6E6E6"></path>
            <path d="M166.986695,263.166982 C166.640695,263.165986 166.308695,263.369986 166.063695,263.734986 C165.818695,264.098986 165.680689,264.593986 165.680689,265.110986 C165.679695,265.626986 165.816695,266.122986 166.060695,266.488986 C166.303695,266.854986 166.635695,267.060986 166.980695,267.062 L227.130695,267.062 C227.301695,267.062986 227.471695,267.012986 227.629695,266.914986 C227.788695,266.816986 227.932695,266.673986 228.053695,266.492986 C228.174695,266.311986 228.270695,266.096986 228.336695,265.860986 C228.402695,265.623986 228.435695,265.370986 228.435695,265.114986 C228.435695,264.858986 228.402695,264.604986 228.336695,264.368986 C228.270695,264.131986 228.174695,263.916986 228.053695,263.735986 C227.932695,263.554986 227.788695,263.411986 227.629695,263.313986 C227.471695,263.216986 227.301695,263.166982 227.130695,263.166982 L166.986695,263.166982 Z" id="Path" fill="#E6E6E6"></path>
            <path d="M274.269695,282.271986 L130.269695,282.271986 L130.269695,236.271986 L274.269695,236.271986 L274.269695,282.271986 Z M132.467695,278.985986 L272.071695,278.985986 L272.071695,239.557986 L132.467695,239.557986 L132.467695,278.985986 Z" id="Shape" fill="#E6E6E6"></path>
            <polygon id="Path" fill="#FFFFFF" points="274.269695 219.271986 130.269695 219.271986 130.269695 173.271986 274.269695 173.271986"></polygon>
            <path d="M148.928695,207.956986 C153.246695,207.956986 156.747695,202.725986 156.747695,196.271986 C156.747695,189.817986 153.246695,184.586986 148.928695,184.586986 C144.610695,184.586986 141.110695,189.817986 141.110695,196.271986 C141.110695,202.725986 144.610695,207.956986 148.928695,207.956986 Z" id="Path" fill="#E6E6E6"></path>
            <path d="M166.986695,188.481986 C166.640695,188.481986 166.309695,188.686986 166.064695,189.051986 C165.820695,189.416986 165.683695,189.912986 165.683695,190.428986 C165.683695,190.945986 165.820695,191.440986 166.064695,191.805986 C166.309695,192.171986 166.640695,192.376986 166.986695,192.376986 L262.128695,192.376986 C262.473695,192.375986 262.804695,192.169986 263.047695,191.804986 C263.291695,191.439986 263.428695,190.944986 263.428695,190.428986 C263.428695,189.913986 263.291695,189.418986 263.047695,189.053986 C262.804695,188.688986 262.473695,188.482986 262.128695,188.481986 L166.986695,188.481986 Z" id="Path" fill="#E6E6E6"></path>
            <path d="M166.986695,200.166982 C166.640695,200.165986 166.308695,200.369986 166.063695,200.734986 C165.818695,201.098986 165.680689,201.593986 165.680689,202.110986 C165.679695,202.626986 165.816695,203.122986 166.060695,203.488986 C166.303695,203.854986 166.635695,204.060986 166.980695,204.062 L227.130695,204.062 C227.301695,204.062986 227.471695,204.012986 227.629695,203.914986 C227.788695,203.816986 227.932695,203.673986 228.053695,203.492986 C228.174695,203.311986 228.270695,203.096986 228.336695,202.860986 C228.402695,202.623986 228.435695,202.370986 228.435695,202.114986 C228.435695,201.858986 228.402695,201.604986 228.336695,201.368986 C228.270695,201.131986 228.174695,200.916986 228.053695,200.735986 C227.932695,200.554986 227.788695,200.411986 227.629695,200.313986 C227.471695,200.216986 227.301695,200.166982 227.130695,200.166982 L166.986695,200.166982 Z" id="Path" fill="#E6E6E6"></path>
            <path d="M274.269695,219.271986 L130.269695,219.271986 L130.269695,173.271986 L274.269695,173.271986 L274.269695,219.271986 Z M132.467695,215.985986 L272.071695,215.985986 L272.071695,176.557986 L132.467695,176.557986 L132.467695,215.985986 Z" id="Shape" fill="#E6E6E6"></path>
            <polygon id="Path" fill="#FFFFFF" points="274.269695 153.271986 130.269695 153.271986 130.269695 107.271986 274.269695 107.271986"></polygon>
            <path d="M148.928695,141.956986 C153.246695,141.956986 156.747695,136.725986 156.747695,130.271986 C156.747695,123.817986 153.246695,118.586986 148.928695,118.586986 C144.610695,118.586986 141.110695,123.817986 141.110695,130.271986 C141.110695,136.725986 144.610695,141.956986 148.928695,141.956986 Z" id="Path" fill="#E6E6E6"></path>
            <path d="M166.986695,122.481986 C166.640695,122.481986 166.309695,122.686986 166.064695,123.051986 C165.820695,123.416986 165.683695,123.912986 165.683695,124.428986 C165.683695,124.945986 165.820695,125.440986 166.064695,125.805986 C166.309695,126.171986 166.640695,126.376986 166.986695,126.376986 L262.128695,126.376986 C262.473695,126.375986 262.804695,126.169986 263.047695,125.804986 C263.291695,125.439986 263.428695,124.944986 263.428695,124.428986 C263.428695,123.913986 263.291695,123.418986 263.047695,123.053986 C262.804695,122.688986 262.473695,122.482986 262.128695,122.481986 L166.986695,122.481986 Z" id="Path" fill="#E6E6E6"></path>
            <path d="M166.986695,134.166982 C166.640695,134.165986 166.308695,134.369986 166.063695,134.734986 C165.818695,135.098986 165.680689,135.593986 165.680689,136.110986 C165.679695,136.626986 165.816695,137.122986 166.060695,137.488986 C166.303695,137.854986 166.635695,138.060986 166.980695,138.062 L227.130695,138.062 C227.301695,138.062986 227.471695,138.012986 227.629695,137.914986 C227.788695,137.816986 227.932695,137.673986 228.053695,137.492986 C228.174695,137.311986 228.270695,137.096986 228.336695,136.860986 C228.402695,136.623986 228.435695,136.370986 228.435695,136.114986 C228.435695,135.858986 228.402695,135.604986 228.336695,135.368986 C228.270695,135.131986 228.174695,134.916986 228.053695,134.735986 C227.932695,134.554986 227.788695,134.411986 227.629695,134.313986 C227.471695,134.216986 227.301695,134.166982 227.130695,134.166982 L166.986695,134.166982 Z" id="Path" fill="#E6E6E6"></path>
            <path d="M274.269695,153.271986 L130.269695,153.271986 L130.269695,107.271986 L274.269695,107.271986 L274.269695,153.271986 Z M132.467695,149.985986 L272.071695,149.985986 L272.071695,110.557986 L132.467695,110.557986 L132.467695,149.985986 Z" id="Shape" fill="#E6E6E6"></path>
            <polygon id="Path" fill="#FFFFFF" points="273.181695 93.8729858 129.269695 93.6219858 129.357695 43.2719858 273.269695 43.5239858"></polygon>
            <path d="M147.939695,81.2699922 C152.254695,81.2769858 155.763695,75.5569858 155.775725,68.4929858 C155.787695,61.4289858 152.299695,55.6969858 147.983695,55.6889793 C143.668695,55.6819858 140.159695,61.4019858 140.147664,68.4659858 C140.135695,75.5299858 143.623695,81.2619858 147.939695,81.2699922 Z" id="Path" fill="#24A148"></path>
            <path d="M166.022695,59.9839858 C165.677695,59.9839858 165.345695,60.2079858 165.100695,60.6069858 C164.855695,61.0059858 164.717695,61.5479858 164.716689,62.1139858 C164.715695,62.6789858 164.851695,63.2209858 165.095695,63.6219858 C165.339695,64.0219858 165.669695,64.2469858 166.015695,64.2479858 L261.099695,64.4139858 C261.444695,64.4129858 261.775695,64.1889858 262.019695,63.7889858 C262.263695,63.3899858 262.401695,62.8489858 262.4027,62.2839858 C262.403695,61.7199858 262.267695,61.1779858 262.024695,60.7779858 C261.781695,60.3779858 261.451695,60.1519858 261.106695,60.1499858 L166.022695,59.9839858 Z" id="Path" fill="#3F3D56"></path>
            <path d="M166.000695,72.7739824 C165.654695,72.7729858 165.322695,72.9949858 165.077695,73.3939858 C164.832695,73.7919858 164.693695,74.3339858 164.691673,74.8989858 C164.689695,75.4649858 164.825695,76.0079858 165.068695,76.4089858 C165.311695,76.8099858 165.641695,77.0359858 165.987695,77.0379858 L226.100695,77.1429992 C226.271695,77.1439858 226.441695,77.0889858 226.599695,76.9829858 C226.758695,76.8759858 226.902695,76.7189858 227.023695,76.5209858 C227.145695,76.3239858 227.241695,76.0889858 227.308695,75.8299858 C227.374695,75.5709858 227.408716,75.2939858 227.408716,75.0129858 C227.409695,74.7329858 227.375695,74.4559858 227.310695,74.1969858 C227.245695,73.9379858 227.150695,73.7019858 227.029695,73.5039858 C226.908695,73.3059858 226.764695,73.1489858 226.606695,73.0419858 C226.448695,72.9339858 226.279695,72.8789858 226.108695,72.8789858 L166.000695,72.7739824 Z" id="Path" fill="#3F3D56"></path>
            <path d="M273.181695,93.8729858 L129.269695,93.6219858 L129.357695,43.2719858 L273.269695,43.5239858 L273.181695,93.8729858 Z M131.472695,90.0289858 L270.990695,90.2729858 L271.066695,47.1159858 L131.548695,46.8719858 L131.472695,90.0289858 Z" id="Shape" fill="#CCCCCC"></path>
            <g id="Group" transform="translate(120.269695, 84.271504)">
                <path d="M5.638,175.895482 C5.638,175.895482 6.443,158.998482 22.954,160.962482 L5.638,175.895482 Z" id="Path" fill="#24A148"></path>
                <path d="M5.444,233.150482 C5.423,232.973482 3.474,215.366482 11.365,206.048482 C14.277,202.609482 18.179,200.684482 22.963,200.325482 L23.016,200.988482 C18.424,201.333482 14.682,203.178482 11.892,206.471482 C4.186,215.569482 6.102,232.900482 6.122,233.074482 L5.444,233.150482 Z" id="Path" fill="#000000"></path>
                <polygon id="Path" fill="#000000" points="5.463 158.619482 4.777 158.619482 4.777 232.646482 5.463 232.646482"></polygon>
                <path d="M5.638,158.998482 C8.751,158.998482 11.275,156.536482 11.275,153.499482 C11.275,150.462482 8.751,148.000482 5.638,148.000482 C2.524,148.000482 0,150.462482 0,153.499482 C0,156.536482 2.524,158.998482 5.638,158.998482 Z" id="Path" fill="#24A148"></path>
                <path d="M22.989,206.121482 C26.083,206.121482 28.591,203.674482 28.591,200.656482 C28.591,197.639482 26.083,195.192482 22.989,195.192482 C19.895,195.192482 17.387,197.639482 17.387,200.656482 C17.387,203.674482 19.895,206.121482 22.989,206.121482 Z" id="Path" fill="#24A148"></path>
                <path d="M160,60.4234818 L160,60.7854818 C159.992,61.6934818 159.965,62.5984818 159.92,63.4984818 C159.117,78.9034818 152.303,93.4264818 140.876,104.089482 C129.449,114.753482 114.274,120.749482 98.46,120.850482 C82.646,120.951482 67.392,115.149482 55.822,104.632482 C44.253,94.1154818 37.246,79.6814818 36.236,64.2874818 C36.152,63.0094818 36.1089093,61.7214818 36.1089093,60.4234818 C36.087,47.9084818 40.069,35.6994818 47.5,25.4974818 C48.094,24.6754818 48.712,23.8684818 49.354,23.0764818 C49.796,22.5254818 50.252,21.9874818 50.711,21.4524818 C61.168,9.3694818 76.064,1.7644818 92.203,0.270481797 C108.341,-1.2235182 124.438,3.5124818 137.038,13.4624818 C137.784,14.0494818 138.517,14.6584818 139.234,15.2784818 C139.807,15.7764818 140.37,16.2844818 140.923,16.8034818 C151.823,26.9734818 158.532,40.6814818 159.785,55.3434818 C159.928,57.0204818 160,58.7134818 160,60.4234818 Z" id="Path" fill="#24A148"></path>
                <path d="M49.354,23.0764818 C49.384,23.0884818 49.413,23.1054818 49.438,23.1254818 C49.771,23.3924818 49.354,23.9064818 49.405,24.3304818 C49.464,24.8724818 50.205,24.9914818 50.766,25.0454818 C51.326,25.1024818 52.034,25.5424818 51.769,26.0274818 C50.361,26.5004818 48.937,26.0354818 47.5,25.4974818 C40.069,35.6994818 36.087,47.9094818 36.1089093,60.4234818 C36.1089093,61.7224818 36.152,63.0104818 36.236,64.2874818 C36.354,64.3714818 36.483,64.4394818 36.619,64.4884818 C37.041,64.6454818 37.53,64.6164818 37.917,64.8384818 C38.225,65.0154818 38.431,65.3274818 38.739,65.4914818 C39.62,65.9604818 40.842,65.0604818 41.663,65.6194818 C41.876,65.8074818 42.077,66.0084818 42.266,66.2194818 C43.025,66.8604818 44.272,66.4294818 45.148,66.9094818 C45.713,67.2184818 46.004,67.8344818 46.307,68.3934818 C47.062,69.7914818 48.284,71.1644818 49.898,71.2754818 C50.407,71.2524818 50.917,71.2684818 51.423,71.3244818 C51.92,71.4354818 52.409,71.8584818 52.329,72.3484818 C52.19,73.1904818 52.616,74.1114818 52.502,74.9544818 C52.295,76.4954818 50.058,77.1694818 49.868,78.7104818 C49.867,79.0504818 49.848,79.3894818 49.809,79.7264818 C49.708,80.1294818 49.396,80.4574818 49.287,80.8604818 C49.076,81.6214818 49.636,82.3814818 50.247,82.8914818 C50.863,83.4054818 51.596,83.8494818 51.933,84.5644818 C52.287,85.3244818 52.114,86.2084818 52.228,87.0344818 C52.481,88.8394818 54.078,90.1744818 55.721,91.0384818 C56.248,91.2524818 56.716,91.5854818 57.087,92.0084818 C57.508,92.6044818 57.466,93.3894818 57.609,94.1004818 C57.955,95.8394818 59.455,97.2734818 59.497,99.0454818 C59.526,100.307482 58.81,101.449482 58.38,102.637482 C57.938,103.883482 57.807,105.213482 57.997,106.517482 C60.4,108.505482 62.954,110.312482 65.637,111.923482 C65.783,111.712482 65.89,111.479482 65.953,111.232482 C66.004,110.960482 65.969,110.678482 65.852,110.426482 C65.735,110.173482 65.543,109.961482 65.3,109.818482 C65.752,109.651482 66.164,109.394482 66.509,109.062482 C66.678,108.892482 66.79,108.676482 66.829,108.442482 C66.868,108.208482 66.833,107.968482 66.728,107.755482 C67.47,107.845482 68.351,107.890482 68.839,107.335482 C69.231,106.892482 69.206,106.226482 69.05,105.662482 C68.894,105.095482 68.633,104.549482 68.629,103.961482 C70.347,104.042482 72.069,103.986482 73.778,103.792482 C73.531,102.979482 72.969,102.292482 72.211,101.877482 C72.986,101.749482 73.69,100.845482 73.934,100.118482 C74.145,99.3754818 74.157,98.5924818 73.968,97.8444818 C73.909,97.6524818 73.9,97.4494818 73.942,97.2534818 C74.067,96.9924818 74.286,96.7854818 74.558,96.6734818 C75.839,95.9544818 77.12,95.2364818 78.401,94.5194818 C78.629,94.4074818 78.837,94.2584818 79.016,94.0794818 C79.416,93.6154818 79.357,92.9204818 79.151,92.3494818 C78.944,91.7774818 78.616,91.2394818 78.536,90.6394818 C78.3,88.8434818 80.272,87.5524818 80.938,85.8584818 C81.164,85.1824818 81.286,84.4774818 81.3,83.7664818 C81.355,83.0024818 81.359,82.1184818 80.761,81.6294818 C80.183,81.1564818 79.286,81.2634818 78.683,80.8234818 C78.131,80.4204818 77.941,79.6444818 77.339,79.3194818 C76.791,79.0234818 76.108,79.2124818 75.497,79.0724818 C74.427,78.8304818 73.753,77.6254818 72.657,77.5144818 C72.042,77.4494818 71.342,77.7454818 70.837,77.3954818 C70.39,77.0834818 70.373,76.4624818 70.289,75.9364818 C70.139,75.1164818 69.736,74.3614818 69.133,73.7724818 C68.531,73.1834818 67.758,72.7874818 66.918,72.6394818 C66.281,72.5414818 65.59,72.5784818 65.047,72.2374818 C64.499,71.8914818 64.25,71.2464818 63.816,70.7654818 C63.125,69.9964818 62.03,69.7214818 61.006,69.4874818 C59.615,69.1704818 58.226,68.8524818 56.838,68.5334818 C56.101,68.3604818 55.148,68.2704818 54.748,68.9034818 C54.629,69.1444818 54.547,69.4004818 54.503,69.6634818 C54.353,70.1384818 54.053,70.5544818 53.646,70.8524818 C53.239,71.1504818 52.745,71.3154818 52.236,71.3244818 C51.888,70.7444818 51.323,70.3174818 50.66,70.1324818 C50.227,70.0614818 49.799,69.9624818 49.379,69.8364818 C49.16,69.7314818 48.965,69.5844818 48.806,69.4034818 C48.647,69.2224818 48.528,69.0124818 48.455,68.7844818 C48.383,68.5574818 48.358,68.3174818 48.384,68.0814818 C48.41,67.8444818 48.484,67.6144818 48.604,67.4074818 C48.843,66.9904818 48.935,66.5084818 48.865,66.0344818 C48.796,65.5614818 48.57,65.1244818 48.22,64.7884818 C47.512,64.1684818 46.488,64.0164818 45.536,64.0774818 C45.287,63.5474818 45.705,62.9514818 46.151,62.5654818 C46.602,62.1824818 47.146,61.8044818 47.243,61.2294818 C47.399,60.3254818 46.215,59.6384818 45.317,59.9054818 C44.419,60.1774818 43.846,61.0274818 43.467,61.8664818 C43.283,62.3614818 43.032,62.8294818 42.721,63.2594818 C42.562,63.4724818 42.345,63.6384818 42.095,63.7384818 C41.845,63.8384818 41.572,63.8694818 41.305,63.8274818 C40.564,63.6424818 40.281,62.7834818 40.117,62.0594818 C39.854,61.0924818 39.72,60.0964818 39.721,59.0964818 C39.727,58.0854818 40.139,57.1174818 40.867,56.3994818 C42.093,55.2984818 43.981,55.4044818 45.637,55.5814818 C45.46,55.3504818 45.375,55.0644818 45.398,54.7774818 C45.421,54.4894818 45.551,54.2204818 45.764,54.0194818 C45.985,53.8274818 46.252,53.6914818 46.539,53.6224818 C46.827,53.5534818 47.128,53.5544818 47.416,53.6254818 C47.915,53.7254818 48.365,53.9884818 48.692,54.3694818 C49.164,54.9284818 49.299,55.6884818 49.653,56.3214818 C50.011,56.9584818 50.812,57.5014818 51.465,57.1604818 C52.034,56.8644818 52.123,56.0994818 51.983,55.4874818 C51.84,54.8784818 51.541,54.2824818 51.592,53.6574818 C51.688,52.4704818 52.957,51.7504818 54.074,51.2614818 C55.19,50.7724818 56.467,50.1104818 56.644,48.9264818 C56.652,48.6964818 56.698,48.4694818 56.779,48.2524818 C56.903,48.0594818 57.075,47.9014818 57.28,47.7924818 C60.538,45.6914818 63.854,43.5624818 67.579,42.4154818 C67.773,42.3544818 67.794,42.4204818 67.992,42.3744818 C68.27,42.2184818 68.085,41.7874818 67.82,41.6144818 C67.554,41.4414818 67.2,41.3064818 67.133,41.0014818 C67.086,40.7804818 67.221,40.5584818 67.255,40.3314818 C67.264,40.1954818 67.238,40.0584818 67.18,39.9344818 C67.122,39.8094818 67.034,39.7004818 66.923,39.6174818 C66.812,39.5334818 66.681,39.4774818 66.543,39.4544818 C66.405,39.4314818 66.263,39.4424818 66.13,39.4854818 C65.831,39.0984818 66.421,38.6504818 66.901,38.5194818 C68.339,38.1344818 69.815,37.9004818 71.304,37.8204818 C71.476,37.7924818 71.653,37.8214818 71.806,37.9024818 C71.915,38.0054818 71.98,38.1454818 71.987,38.2944818 C71.994,38.4424818 71.943,38.5874818 71.844,38.7004818 C71.641,38.9194818 71.417,39.1194818 71.174,39.2964818 C70.932,39.5254818 70.759,39.8144818 70.675,40.1324818 C70.59,40.4514818 70.597,40.7854818 70.693,41.1004818 C71.473,41.4874818 72.316,41.8854818 73.18,41.7504818 C74.039,41.6144818 74.802,40.6694818 74.398,39.9164818 C74.022,39.2134818 72.889,39.0534818 72.695,38.2844818 C72.468,37.3844818 73.774,36.5834818 73.479,35.7034818 C73.352,35.3174818 72.956,35.0874818 72.653,34.8114818 C72.296,34.4684818 72.053,34.0284818 71.956,33.5494818 C71.859,33.0694818 71.913,32.5724818 72.109,32.1234818 C71.616,32.2074818 71.109,32.1754818 70.631,32.0294818 C70.153,31.8834818 69.718,31.6284818 69.362,31.2844818 C68.704,30.6394818 68.182,29.6164818 67.246,29.6484818 C66.391,29.6734818 65.654,30.6474818 64.853,30.3514818 C64.655,30.2774818 64.448,30.1294818 64.259,30.2164818 C64.196,30.2554818 64.144,30.3084818 64.105,30.3694818 C64.066,30.4314818 64.042,30.5014818 64.035,30.5734818 C63.833,31.5234818 64.183,32.6044818 63.652,33.4264818 C63.075,34.3184818 61.739,34.4414818 61.039,35.2474818 C60.66,35.6834818 60.513,36.2704818 60.163,36.7314818 C59.813,37.1914818 59.076,37.4874818 58.654,37.0844818 C58.861,36.6724818 58.917,36.2034818 58.814,35.7554818 C58.712,35.3074818 58.456,34.9064818 58.089,34.6184818 C57.701,34.3694818 57.282,34.1714818 56.842,34.0264818 C56.351,33.8244818 55.883,33.5704818 55.447,33.2704818 C55.23,33.1414818 55.054,32.9564818 54.937,32.7354818 C54.845,32.4584818 54.857,32.1584818 54.971,31.8894818 C55.184,31.2954818 55.56,30.7694818 56.056,30.3684818 C56.553,29.9674818 57.153,29.7054818 57.79,29.6124818 C58.347,29.5384818 58.995,29.5624818 59.366,29.1474818 C59.56,28.9294818 59.661,28.5964818 59.948,28.5104818 C60.128,28.4734818 60.316,28.4954818 60.483,28.5724818 C61.178,28.8104818 61.869,29.0484818 62.565,29.2874818 C62.797,29.3914818 63.053,29.4324818 63.306,29.4064818 C63.432,29.3904818 63.547,29.3284818 63.628,29.2334818 C63.708,29.1374818 63.749,29.0164818 63.74,28.8924818 C63.673,28.5554818 63.142,28.3954818 63.193,28.0544818 C63.217,27.9424818 63.278,27.8414818 63.365,27.7664818 C64.117,26.9864818 65.036,26.3784818 66.057,25.9854818 C67.077,25.5924818 68.174,25.4244818 69.269,25.4934818 C69.53,25.9164818 69.117,26.4144818 68.768,26.7714818 C68.422,27.1334818 68.144,27.7744818 68.565,28.0504818 C68.735,28.1374818 68.926,28.1794818 69.117,28.1734818 C69.63,28.2404818 70.128,28.3874818 70.592,28.6094818 C71.313,28.9134818 72.021,29.2504818 72.712,29.6124818 C72.61,29.1714818 72.628,28.7124818 72.763,28.2804818 C72.839,28.0684818 72.993,27.8914818 73.196,27.7844818 C73.398,27.6764818 73.634,27.6474818 73.858,27.7004818 C74.271,27.8564818 74.482,28.3914818 74.924,28.4404818 C75.51,28.5064818 75.742,27.6594818 75.497,27.1334818 C75.253,26.6074818 74.764,26.1714818 74.726,25.5924818 C74.697,25.2054818 74.848,24.7244818 74.532,24.4904818 C74.42,24.4174818 74.291,24.3724818 74.157,24.3584818 C71.511,23.8864818 68.863,23.4124818 66.214,22.9364818 C65.742,22.8504818 65.064,22.9164818 65.043,23.3804818 C65.03,23.6434818 65.27,23.9024818 65.165,24.1414818 C65.051,24.3954818 64.68,24.3754818 64.41,24.4654818 C64.208,24.5554818 64.041,24.7074818 63.934,24.8974818 C63.828,25.0884818 63.788,25.3074818 63.82,25.5224818 C63.893,25.9494818 64.062,26.3554818 64.318,26.7104818 C63.799,26.5004818 63.02,26.4634818 62.502,26.2494818 C62.426,25.6644818 62.273,25.0904818 62.046,24.5434818 C62.033,24.4564818 62.001,24.3734818 61.952,24.3004818 C61.902,24.2264818 61.837,24.1644818 61.76,24.1184818 C61.683,24.0714818 61.597,24.0424818 61.508,24.0324818 C61.418,24.0224818 61.327,24.0314818 61.242,24.0584818 C60.559,24.1614818 59.876,24.2604818 59.194,24.3634818 C59.022,24.3704818 58.858,24.4324818 58.726,24.5394818 C58.46,24.8154818 58.722,25.2544818 58.713,25.6334818 C58.688,25.8444818 58.597,26.0434818 58.451,26.2014818 C58.305,26.3604818 58.113,26.4704818 57.9,26.5164818 C57.471,26.6014818 57.028,26.5964818 56.602,26.5004818 C55.645,26.3564818 54.693,26.2124818 53.736,26.0684818 C54.581,25.8064818 55.332,25.3164818 55.902,24.6544818 C56.282,24.2194818 56.484,23.4054818 55.936,23.1994818 C55.774,23.1564818 55.606,23.1434818 55.439,23.1624818 C54.141,23.1704818 53.117,22.1144818 51.903,21.6664818 C51.522,21.5274818 51.118,21.4554818 50.711,21.4524818 L49.354,23.0764818 Z" id="Path" fill="#3F3D56"></path>
                <path d="M159.92,63.4984818 C159.771,63.6924818 159.576,63.8484818 159.351,63.9524818 C159.126,64.0564818 158.879,64.1054818 158.63,64.0944818 C157.311,63.9834818 156.755,62.1294818 155.449,61.9194818 C155.333,61.8904818 155.211,61.9024818 155.103,61.9524818 C154.91,62.0554818 154.876,62.3104818 154.863,62.5244818 C154.808,63.5844818 154.762,64.6864818 155.188,65.6644818 C155.807,67.0944818 157.413,68.2954818 157.076,69.8114818 C155.263,68.9934818 154.32,67.0084818 153.894,65.1054818 C153.464,63.2024818 153.397,61.2044818 152.63,59.4044818 C152.044,60.1314818 150.822,59.5314818 150.291,58.7674818 C149.785,58.0434818 149.474,57.2054818 148.985,56.4694818 C148.496,55.7374818 147.746,55.0804818 146.852,55.0394818 C145.913,54.9974818 145.095,55.6264818 144.379,56.2224818 C143.756,56.6714818 143.232,57.2394818 142.841,57.8914818 C142.339,58.8784818 142.47,60.0374818 142.445,61.1344818 C142.419,62.3184818 142.162,63.5724818 141.332,64.4434818 C140.502,65.3104818 138.972,65.6154818 138.058,64.8304818 C137.616,64.3804818 137.301,63.8264818 137.143,63.2224818 C136.149,60.3964818 135.322,57.5174818 134.666,54.5994818 C134.514,55.2654818 133.911,56.1244818 133.338,55.7334818 C133.21,55.6274818 133.107,55.4954818 133.035,55.3474818 C131.964,53.5834818 129.988,52.5234818 127.986,51.8864818 C125.989,51.2534818 123.886,50.9574818 121.91,50.2584818 C120.802,49.8664818 119.743,49.3514818 118.754,48.7254818 C118.502,49.0864818 118.356,49.5064818 118.329,49.9424818 C118.302,50.3774818 118.397,50.8124818 118.602,51.1994818 C118.824,51.5794818 119.168,51.8764818 119.581,52.0444818 C119.994,52.2134818 120.453,52.2444818 120.886,52.1324818 C121.324,51.9934818 121.695,51.6974818 122.129,51.5494818 C122.563,51.4054818 123.149,51.4754818 123.338,51.8864818 C123.524,52.2764818 123.246,52.7494818 123.385,53.1604818 C123.591,53.7814818 124.556,53.8304818 124.893,54.3974818 C124.993,54.6224818 125.015,54.8724818 124.958,55.1104818 C124.902,55.3484818 124.768,55.5624818 124.577,55.7214818 C124.19,56.0294818 123.762,56.2864818 123.305,56.4854818 C121.889,57.2544818 120.882,58.5654818 119.643,59.5854818 C118.404,60.6084818 116.655,61.3524818 115.18,60.6994818 C115.53,58.9604818 113.41,57.6864818 113.018,55.9554818 C112.888,55.3844818 112.955,54.7804818 112.774,54.2254818 C112.509,53.4194818 111.775,52.8684818 111.177,52.2604818 C110.45,51.5134818 109.883,50.6324818 109.511,49.6684818 C109.138,48.7054818 108.967,47.6784818 109.007,46.6494818 C109.041,45.9344818 109.175,45.2064818 109.007,44.5084818 C108.842,43.8134818 108.248,43.1394818 107.515,43.1684818 C105.842,43.2424818 103.731,43.3654818 102.854,41.9724818 C102.538,41.4744818 102.403,40.7474818 102.859,40.3644818 C103.179,40.0974818 103.651,40.1224818 104.068,40.1634818 C105.328,40.2824818 106.584,40.4054818 107.844,40.5254818 C108.724,40.6074818 109.677,40.6774818 110.435,40.2294818 C111.194,39.7814818 111.523,38.5854818 110.819,38.0544818 C110.309,37.6684818 109.39,37.6884818 109.239,37.0764818 C109.116,36.5624818 109.698,35.9834818 109.382,35.5514818 C109.158,35.2474818 108.653,35.3294818 108.345,35.5594818 C108.077,35.8314818 107.785,36.0804818 107.473,36.3034818 C106.87,36.6074818 106.154,36.3164818 105.505,36.1184818 C104.856,35.9214818 103.988,35.9054818 103.676,36.4924818 C103.322,37.1464818 103.984,38.0094818 103.638,38.6674818 C103.175,39.5344818 101.615,39.0414818 100.967,39.7894818 C100.225,40.6444818 101.472,41.9264818 101.224,43.0204818 C100.903,43.1754818 100.548,43.2464818 100.191,43.2264818 C99.834,43.2074818 99.489,43.0974818 99.188,42.9094818 C98.893,42.7134818 98.658,42.4434818 98.509,42.1274818 C98.359,41.8124818 98.299,41.4624818 98.337,41.1174818 C98.396,40.6234818 98.661,40.1184818 98.484,39.6534818 C98.294,39.2954818 97.979,39.0134818 97.595,38.8604818 C96.373,38.1984818 95.151,37.5394818 93.929,36.8834818 C93.588,37.4994818 94.018,38.2604818 94.557,38.7244818 C95.092,39.1854818 95.766,39.5344818 96.12,40.1424818 C96.345,40.5644818 96.395,41.0534818 96.262,41.5104818 C96.129,41.9674818 95.822,42.3574818 95.404,42.6004818 C95.351,42.6364818 95.291,42.6604818 95.228,42.6704818 C95.164,42.6814818 95.1,42.6784818 95.037,42.6624818 C94.979,42.6294818 94.928,42.5844818 94.888,42.5314818 C94.847,42.4784818 94.818,42.4184818 94.801,42.3544818 C94.157,40.7384818 93.183,39.1484818 91.633,38.3054818 C90.078,37.4584818 87.848,37.6354818 86.829,39.0534818 C86.588,39.3904818 86.424,39.7774818 86.213,40.1344818 C85.097,42.0294818 82.695,42.9254818 80.453,42.8684818 C80.234,42.8814818 80.015,42.8314818 79.825,42.7244818 C79.463,42.4814818 79.479,41.9634818 79.534,41.5364818 C79.614,40.9324818 79.69,40.3314818 79.77,39.7274818 C79.772,39.3584818 79.918,39.0044818 80.179,38.7374818 C80.596,38.4164818 81.195,38.6174818 81.726,38.6094818 C82.126,38.5924818 82.512,38.4544818 82.829,38.2154818 C83.147,37.9764818 83.381,37.6474818 83.5,37.2734818 C83.606,36.8964818 83.606,36.4984818 83.497,36.1214818 C83.389,35.7444818 83.177,35.4044818 82.884,35.1364818 C82.644,34.9144818 82.32,34.6344818 82.446,34.3344818 C82.497,34.2524818 82.567,34.1814818 82.649,34.1274818 C82.731,34.0734818 82.824,34.0374818 82.922,34.0224818 C83.87,33.7554818 84.878,33.6854818 85.809,33.3644818 C86.744,33.0484818 87.65,32.3984818 87.874,31.4574818 C87.941,31.1694818 87.971,30.8204818 88.236,30.6764818 C88.37,30.6244818 88.513,30.5964818 88.657,30.5944818 C89.164,30.5234818 89.625,30.2704818 89.951,29.8844818 C90.276,29.4994818 90.441,29.0094818 90.415,28.5104818 C90.861,28.2064818 91.489,28.4324818 91.923,28.7574818 C92.353,29.0814818 92.737,29.5094818 93.263,29.6494818 C94.245,29.9124818 95.193,29.0614818 96.213,29.0574818 C96.643,29.0574818 97.085,29.2054818 97.486,29.0614818 C97.895,28.9174818 98.139,28.5224818 98.451,28.2304818 C98.767,27.9344818 99.315,27.7584818 99.605,28.0744818 C99.521,27.4784818 99.441,26.8864818 99.357,26.2944818 C99.853,26.4164818 100.371,26.4334818 100.874,26.3444818 C101.378,26.2554818 101.856,26.0614818 102.277,25.7764818 C101.215,25.4274818 100.157,25.0784818 99.096,24.7284818 C98.984,24.7024818 98.881,24.6484818 98.796,24.5724818 C98.565,24.3304818 98.796,23.9514818 98.982,23.6764818 C99.433,23.0144818 99.508,21.9254818 98.767,21.5964818 C98.261,21.3704818 97.684,21.6414818 97.199,21.9044818 C96.424,22.3244818 95.648,22.7474818 94.873,23.1664818 C94.801,23.5984818 95.341,23.8454818 95.674,24.1324818 C95.877,24.3084818 96.02,24.5394818 96.086,24.7964818 C96.151,25.0534818 96.135,25.3234818 96.041,25.5704818 C95.946,25.8184818 95.776,26.0324818 95.554,26.1844818 C95.332,26.3364818 95.068,26.4194818 94.797,26.4224818 C94.95,26.6164818 95.056,26.8424818 95.108,27.0814818 C95.16,27.3214818 95.156,27.5694818 95.096,27.8074818 C94.578,27.8444818 94.056,27.8814818 93.533,27.9184818 C93.446,27.9354818 93.357,27.9354818 93.27,27.9184818 C93.183,27.9014818 93.101,27.8684818 93.027,27.8194818 C92.859,27.6754818 92.884,27.4214818 92.842,27.2074818 C92.773,26.9514818 92.626,26.7224818 92.422,26.5484818 C92.218,26.3754818 91.965,26.2654818 91.696,26.2334818 C91.159,26.1744818 90.615,26.2234818 90.099,26.3774818 C89.874,26.4544818 89.628,26.4484818 89.408,26.3604818 C89.283,26.2794818 89.188,26.1614818 89.138,26.0234818 C89.046,25.7414818 89.031,25.4414818 89.093,25.1524818 C89.155,24.8624818 89.292,24.5934818 89.492,24.3714818 C89.897,23.9324818 90.342,23.5324818 90.823,23.1754818 C91.914,22.2434818 92.715,21.0334818 93.137,19.6814818 C93.997,19.3274818 94.886,18.8504818 95.75,18.4974818 C96.444,18.1834818 97.172,17.9454818 97.92,17.7864818 C98.624,17.6814818 99.337,17.6484818 100.048,17.6874818 C101.017,17.7044818 101.991,17.7204818 102.96,17.7414818 C103.825,17.7054818 104.689,17.8264818 105.509,18.0984818 C106.306,18.4194818 107.009,19.1144818 107.064,19.9524818 C107.081,20.0484818 107.072,20.1464818 107.039,20.2374818 C107.006,20.3284818 106.949,20.4104818 106.874,20.4744818 C106.763,20.5344818 106.636,20.5634818 106.508,20.5564818 C105.703,20.5814818 105.362,20.7784818 104.557,20.8074818 C105.067,21.3374818 105.64,21.8964818 106.381,21.9914818 C107.688,22.1554818 108.628,20.8364818 109.23,19.6894818 C109.252,19.9814818 109.389,20.2534818 109.614,20.4474818 C109.838,20.6424818 110.131,20.7434818 110.431,20.7294818 C110.754,20.6754818 111.062,20.5574818 111.337,20.3844818 C113.929,19.0024818 116.832,18.2704818 119.786,18.2544818 C119.757,18.0364818 119.812,17.8154818 119.941,17.6354818 C120.069,17.4544818 120.262,17.3264818 120.481,17.2764818 C121.084,17.1614818 121.623,17.6674818 121.914,18.1934818 C122.201,18.7194818 122.382,19.3274818 122.845,19.7224818 C123.305,20.1164818 124.194,20.0964818 124.375,19.5294818 C124.552,18.9824818 123.966,18.5134818 123.482,18.1894818 C122.993,17.8684818 122.483,17.2724818 122.812,16.7954818 C125.29,16.2574818 127.788,15.7224818 130.329,15.6164818 C130.761,15.6284818 131.191,15.5564818 131.594,15.4024818 C131.793,15.3194818 131.959,15.1754818 132.065,14.9924818 C132.172,14.8084818 132.214,14.5954818 132.184,14.3874818 C131.629,14.5134818 131.049,14.4754818 130.516,14.2794818 C129.983,14.0834818 129.522,13.7374818 129.192,13.2854818 C131.8,13.0754818 134.531,12.8904818 137.038,13.4624818 L139.234,15.2784818 C138.816,15.7024818 138.26,16.1014818 138.564,16.5244818 C138.664,16.6214818 138.785,16.6954818 138.919,16.7404818 C139.052,16.7854818 139.194,16.7994818 139.335,16.7834818 C139.866,16.7914818 140.397,16.8034818 140.923,16.8034818 C151.823,26.9734818 158.532,40.6814818 159.785,55.3434818 C158.9,55.3104818 158.087,56.4034818 158.201,57.3574818 C158.335,58.4634818 159.153,59.3504818 159.739,60.3044818 C159.836,60.4594818 159.923,60.6204818 160,60.7854818 L159.92,63.4984818 Z" id="Path" fill="#3F3D56"></path>
                <path d="M78.019,119.897482 C83.899,119.897482 88.665,115.248482 88.665,109.513482 C88.665,103.778482 83.899,99.1304818 78.019,99.1304818 C72.14,99.1304818 67.374,103.778482 67.374,109.513482 C67.374,115.248482 72.14,119.897482 78.019,119.897482 Z" id="Path" fill="#2F2E41"></path>
                <path d="M72.938,114.759482 C72.938,114.759482 69.47,122.248482 68.48,122.490482 C67.489,122.731482 76.653,127.080482 76.653,127.080482 C76.653,127.080482 78.386,117.900482 79.13,117.417482 C79.873,116.933482 72.938,114.759482 72.938,114.759482 Z" id="Path" fill="#FFB9B9"></path>
                <polygon id="Path" fill="#FFB9B9" points="52.381 176.121482 45.942 193.757482 52.877 196.414482 64.765 173.464482"></polygon>
                <path d="M74.919,176.604482 C74.919,176.604482 87.798,194.240482 88.541,194.482482 C89.284,194.723482 94.485,190.375482 94.485,190.375482 C94.485,190.375482 88.046,175.155482 86.064,174.430482 C84.083,173.705482 74.919,176.604482 74.919,176.604482 Z" id="Path" fill="#FFB9B9"></path>
                <path d="M44.951,190.616482 L34.797,216.466482 C34.797,216.466482 35.54,217.915482 34.797,218.157482 C34.054,218.398482 32.32,222.264482 32.32,222.505482 C32.32,222.747482 30.586,222.988482 30.586,223.713482 C30.586,224.438482 29.1,230.236482 29.1,230.236482 C29.1,230.236482 31.825,236.034482 33.558,234.343482 C35.292,232.652482 36.035,229.270482 36.035,229.270482 L38.512,222.988482 C38.512,222.988482 38.264,219.606482 39.998,219.123482 C41.732,218.640482 42.722,212.600482 42.722,212.600482 C42.722,212.600482 45.447,209.943482 45.942,209.218482 C46.437,208.493482 55.106,195.690482 54.363,195.448482 C53.62,195.206482 44.951,190.616482 44.951,190.616482 Z" id="Path" fill="#2F2E41"></path>
                <path d="M87.055,193.998482 L94.485,189.167482 C94.485,189.167482 107.364,212.117482 107.364,212.600482 C107.364,213.084482 106.868,214.533482 107.364,215.016482 C107.859,215.499482 112.069,223.230482 114.794,223.955482 C117.518,224.680482 118.014,227.578482 115.784,228.062482 C113.555,228.545482 110.583,229.753482 109.84,228.062482 C109.406,227.067482 108.91,226.099482 108.354,225.163482 C108.354,225.163482 105.878,225.887482 105.63,225.404482 C105.344,224.692482 105.096,223.967482 104.887,223.230482 C104.887,223.230482 102.906,219.848482 102.906,218.640482 C102.906,217.432482 101.667,217.190482 101.667,217.190482 C101.667,217.190482 98.943,210.909482 97.209,209.943482 C95.476,208.977482 93.99,204.145482 93.99,204.145482 L87.055,193.998482 Z" id="Path" fill="#2F2E41"></path>
                <path d="M78.139,120.316482 C82.106,120.316482 85.321,117.179482 85.321,113.310482 C85.321,109.440482 82.106,106.304482 78.139,106.304482 C74.172,106.304482 70.956,109.440482 70.956,113.310482 C70.956,117.179482 74.172,120.316482 78.139,120.316482 Z" id="Path" fill="#FFB9B9"></path>
                <path d="M56.839,155.828482 C56.839,155.828482 46.209,183.374482 47.695,183.374482 C49.181,183.374482 90.292,184.246482 91.53,182.314482 C92.769,180.381482 80.863,161.143482 80.368,160.902482 C79.872,160.660482 56.839,155.828482 56.839,155.828482 Z" id="Path" fill="#2F2E41"></path>
                <path d="M46.19,98.3324818 L38.759,87.2194818 C38.759,87.2194818 40.597,75.5614818 38.12,77.7354818 C35.644,79.9104818 34.86,88.6904818 34.86,88.6904818 L43.465,101.472482 L46.19,98.3324818 Z" id="Path" fill="#FFB9B9"></path>
                <path d="M113.555,118.625482 L120.243,118.141482 C120.243,118.141482 128.168,109.928482 128.663,112.585482 C129.159,115.242482 122.224,121.040482 122.224,121.040482 L113.06,122.007482 L113.555,118.625482 Z" id="Path" fill="#FFB9B9"></path>
                <path d="M64.765,121.040482 L64.765,118.625482 C64.765,118.625482 58.325,114.518482 58.573,113.793482 C58.821,113.068482 58.078,112.585482 58.078,112.585482 C58.078,112.585482 57.335,111.619482 57.335,111.377482 C57.335,111.135482 56.344,110.894482 56.344,110.894482 L50.152,103.888482 C50.152,103.888482 46.685,97.1244818 45.942,97.3654818 C45.199,97.6074818 41.236,99.0564818 41.731,100.023482 C42.227,100.989482 56.096,121.765482 56.096,121.765482 C56.096,121.765482 56.839,126.355482 58.078,126.355482 C59.316,126.355482 64.765,121.040482 64.765,121.040482 Z" id="Path" fill="#3F3D56"></path>
                <path d="M81.359,123.939482 C81.359,123.939482 86.807,123.698482 87.055,123.939482 C87.303,124.181482 90.77,123.939482 90.77,123.939482 C90.77,123.939482 100.181,121.765482 100.924,121.040482 C101.667,120.316482 114.051,117.175482 114.546,118.625482 C115.042,120.074482 116.28,122.973482 115.042,123.456482 C113.803,123.939482 80.368,132.153482 80.368,132.153482 L81.359,123.939482 Z" id="Path" fill="#3F3D56"></path>
                <path d="M74.296,102.881482 C76.728,102.881482 78.701,100.957482 78.701,98.5844818 C78.701,96.2114818 76.728,94.2884818 74.296,94.2884818 C71.863,94.2884818 69.891,96.2114818 69.891,98.5844818 C69.891,100.957482 71.863,102.881482 74.296,102.881482 Z" id="Path" fill="#2F2E41"></path>
                <path d="M68.422,96.2574818 C68.422,95.1954818 68.826,94.1714818 69.554,93.3814818 C70.283,92.5924818 71.285,92.0944818 72.368,91.9844818 C72.216,91.9684818 72.063,91.9604818 71.91,91.9604818 C70.741,91.9604818 69.621,92.4134818 68.795,93.2194818 C67.969,94.0254818 67.505,95.1184818 67.505,96.2574818 C67.505,97.3974818 67.969,98.4904818 68.795,99.2954818 C69.621,100.101482 70.741,100.554482 71.91,100.554482 C72.063,100.554482 72.216,100.546482 72.368,100.531482 C71.285,100.420482 70.283,99.9224818 69.554,99.1334818 C68.826,98.3444818 68.422,97.3194818 68.422,96.2574818 Z" id="Path" fill="#2F2E41"></path>
                <path d="M79.258,111.608482 C83.312,111.608482 86.599,109.685482 86.599,107.312482 C86.599,104.939482 83.312,103.015482 79.258,103.015482 C75.203,103.015482 71.916,104.939482 71.916,107.312482 C71.916,109.685482 75.203,111.608482 79.258,111.608482 Z" id="Path" fill="#2F2E41"></path>
                <path d="M70.833,118.504482 C70.833,118.504482 68.604,120.195482 68.108,120.436482 C67.613,120.678482 64.641,118.262482 64.146,118.262482 C63.65,118.262482 57.211,125.510482 57.211,125.510482 C57.211,125.510482 58.408,126.854482 57.211,133.723482 C56.762,136.300482 55.872,147.314482 55.872,148.763482 C55.872,150.213482 51.019,153.775482 55.477,156.915482 C59.935,160.056482 81.235,163.438482 81.482,161.506482 C81.73,159.573482 79.006,154.500482 80.244,152.084482 C81.482,149.668482 81.482,140.729482 81.482,140.729482 L82.968,131.308482 L84.207,123.819482 C84.207,123.819482 78.387,122.248482 77.891,122.248482 C77.396,122.248482 75.167,125.630482 70.833,118.504482 Z" id="Path" fill="#3F3D56"></path>
                <path d="M129.997,209.789482 C131.527,210.498482 133.171,210.675482 134.769,210.305482 C136.367,209.934482 137.865,209.028482 139.12,207.673482 C142.316,204.142482 143.319,198.323482 144.133,192.935482 L146.544,177.000482 L141.496,181.577482 C137.866,184.869482 134.154,188.266482 131.64,193.033482 C129.126,197.801482 128.029,204.310482 130.049,209.468482" id="Path" fill="#24A148"></path>
                <path d="M130.428,229.083482 C129.917,224.182482 129.392,219.219482 129.75,214.265482 C130.069,209.867482 131.088,205.570482 133.163,202.047482 C134.264,200.181482 135.604,198.582482 137.123,197.322482 C137.519,196.993482 137.883,197.819482 137.489,198.147482 C134.862,200.333482 132.829,203.562482 131.685,207.368482 C130.421,211.601482 130.218,216.215482 130.438,220.710482 C130.57,223.429482 130.848,226.129482 131.13,228.828482 C131.153,228.950482 131.139,229.079482 131.092,229.188482 C131.045,229.298482 130.968,229.379482 130.876,229.416482 C130.784,229.449482 130.685,229.432482 130.601,229.370482 C130.517,229.307482 130.456,229.204482 130.43,229.082482 L130.428,229.083482 Z" id="Path" fill="#000000"></path>
            </g>
        </g>
    </g>
</svg>