<svg width="414" height="299" viewBox="0 0 414 299" fill="none" xmlns="http://www.w3.org/2000/svg">
<g opacity="0.8">
<path d="M311.987 40.255C245.964 -11.7416 154.11 -13.8662 87.0989 36.7959C51.6749 63.5778 24.2121 104.552 29.2088 166.939C30.9747 189.006 35.8898 207.109 43.0605 221.929C72.1044 282.007 191.395 279.694 198.02 279.685C202.312 279.681 206.604 279.779 210.896 279.979C225.93 280.684 240.885 282.616 255.618 285.756C276.623 290.229 303.364 292.477 327.257 284.005C331.316 282.572 335.261 280.819 339.055 278.763C352.185 271.634 366.883 264.821 375.475 247.912C381.933 235.221 386.638 219.309 388.902 199.489C397.142 127.308 355.965 74.8902 311.987 40.255Z" fill="#CCCBCB"/>
<path d="M211.185 298.95C315.453 298.95 399.979 290.843 399.979 280.843C399.979 270.843 315.453 262.736 211.185 262.736C106.917 262.736 22.3907 270.843 22.3907 280.843C22.3907 290.843 106.917 298.95 211.185 298.95Z" fill="#3F3D56"/>
<path opacity="0.1" d="M201.962 289.342C298.94 289.342 377.555 285.537 377.555 280.843C377.555 276.149 298.94 272.344 201.962 272.344C104.985 272.344 26.3691 276.149 26.3691 280.843C26.3691 285.537 104.985 289.342 201.962 289.342Z" fill="black"/>
<path d="M414 202.86C414 237.007 394.131 248.93 369.622 248.93C345.113 248.93 325.244 237.007 325.244 202.86C325.244 168.712 369.622 125.271 369.622 125.271C369.622 125.271 414 168.712 414 202.86Z" fill="#24A148"/>
<path d="M368.005 243.707L368.46 215.128L387.375 179.772L368.531 210.645L368.736 197.795L381.771 172.215L368.789 194.395L369.157 171.283L383.116 150.918L369.214 167.649L369.444 125.27L368.001 181.372L368.12 179.057L353.927 156.861L367.892 183.5L366.57 209.312L366.53 208.627L350.169 185.268L366.481 211.047L366.315 214.275L366.286 214.323L366.3 214.588L362.945 280.075H367.427L367.965 246.25L384.237 220.535L368.005 243.707Z" fill="#3F3D56"/>
<path d="M88.756 203.229C88.756 237.377 68.8873 249.3 44.378 249.3C19.8687 249.3 0 237.377 0 203.229C0 169.082 44.378 125.64 44.378 125.64C44.378 125.64 88.756 169.081 88.756 203.229Z" fill="#24A148"/>
<path d="M42.7613 244.076L43.2156 215.498L62.1309 180.142L43.2873 211.015L43.4914 198.164L56.5273 172.585L43.5456 194.764V194.764L43.913 171.653L57.8725 151.288L43.9708 168.019L44.2006 125.64L42.7572 181.741L42.8759 179.427L28.6831 157.231L42.6482 183.869L41.3261 209.681L41.2867 208.996L24.925 185.638L41.2371 211.417L41.0718 214.644L41.0421 214.693L41.0554 214.958L37.7005 280.444H42.1831L42.7209 246.619L58.993 220.904L42.7613 244.076Z" fill="#3F3D56"/>
</g>
<path d="M212.007 281.836C283.741 282.218 341.918 277.741 341.949 271.837C341.98 265.933 283.854 260.838 212.121 260.457C140.387 260.076 82.2103 264.553 82.1789 270.456C82.1475 276.36 140.274 281.455 212.007 281.836Z" fill="#3F3D56"/>
<path d="M286.581 152.128L125.329 151.271L124.695 270.601L285.947 271.458L286.581 152.128Z" fill="#F2F2F2"/>
<path d="M179.15 197.088L138.661 196.873L138.265 271.331L178.754 271.547L179.15 197.088Z" fill="#3F3D56"/>
<path d="M157.033 201.438L146.126 201.38L146.07 212.09L156.976 212.148L157.033 201.438Z" fill="#F2F2F2"/>
<path d="M171.637 201.515L160.73 201.457L160.673 212.168L171.58 212.226L171.637 201.515Z" fill="#F2F2F2"/>
<path d="M156.955 216.043L146.049 215.985L145.99 227.085L156.896 227.143L156.955 216.043Z" fill="#F2F2F2"/>
<path d="M171.559 216.121L160.652 216.063L160.593 227.163L171.5 227.221L171.559 216.121Z" fill="#F2F2F2"/>
<path d="M173.762 242.015C175.184 242.022 176.343 240.814 176.351 239.317C176.359 237.819 175.212 236.598 173.791 236.591C172.369 236.583 171.21 237.791 171.202 239.289C171.194 240.787 172.34 242.007 173.762 242.015Z" fill="#24A148"/>
<path d="M272.802 190.518L192.761 190.092L192.385 260.852L272.426 261.278L272.802 190.518Z" fill="#3F3D56"/>
<path d="M303.312 174.683L108.359 173.647L121.509 145.086L124.452 138.692L128.303 130.329L131.246 123.934L134.657 116.526L288.256 117.343L290.209 124.779L291.895 131.199L294.099 139.593L295.785 146.013L303.312 174.683Z" fill="#3F3D56"/>
<path d="M198.222 219.462L195.414 219.447L195.317 237.691L198.125 237.706L198.222 219.462Z" fill="#24A148"/>
<path d="M198.208 222.174L195.399 222.159L195.388 224.378L198.196 224.393L198.208 222.174Z" fill="#F2F2F2"/>
<path d="M198.151 232.775L195.343 232.76L195.331 234.979L198.14 234.994L198.151 232.775Z" fill="#F2F2F2"/>
<path d="M206.414 219.505L199.626 219.469L199.53 237.714L206.317 237.75L206.414 219.505Z" fill="#24A148"/>
<path d="M206.399 222.217L199.612 222.181L199.6 224.4L206.387 224.436L206.399 222.217Z" fill="#F2F2F2"/>
<path d="M206.343 232.819L199.556 232.783L199.544 235.002L206.331 235.038L206.343 232.819Z" fill="#F2F2F2"/>
<path d="M210.86 219.529L208.052 219.514L207.955 237.759L210.763 237.774L210.86 219.529Z" fill="#24A148"/>
<path d="M210.846 222.241L208.037 222.226L208.026 224.445L210.834 224.46L210.846 222.241Z" fill="#F2F2F2"/>
<path d="M210.79 232.842L207.981 232.828L207.969 235.047L210.778 235.061L210.79 232.842Z" fill="#F2F2F2"/>
<path d="M215.073 219.551L212.265 219.536L212.168 237.781L214.976 237.796L215.073 219.551Z" fill="#24A148"/>
<path d="M215.059 222.263L212.25 222.248L212.238 224.467L215.047 224.482L215.059 222.263Z" fill="#F2F2F2"/>
<path d="M215.002 232.865L212.194 232.85L212.182 235.069L214.99 235.084L215.002 232.865Z" fill="#F2F2F2"/>
<path d="M217.779 219.63L215.145 220.66L221.163 237.764L223.797 236.735L217.779 219.63Z" fill="#24A148"/>
<path d="M218.674 222.173L216.04 223.202L216.772 225.283L219.405 224.253L218.674 222.173Z" fill="#F2F2F2"/>
<path d="M222.17 232.112L219.537 233.141L220.269 235.222L222.902 234.192L222.17 232.112Z" fill="#F2F2F2"/>
<path d="M270.072 219.843L263.285 219.807L263.188 238.052L269.975 238.088L270.072 219.843Z" fill="#24A148"/>
<path d="M270.057 222.555L263.27 222.519L263.259 224.738L270.046 224.774L270.057 222.555Z" fill="#F2F2F2"/>
<path d="M270.001 233.157L263.214 233.121L263.202 235.34L269.989 235.376L270.001 233.157Z" fill="#F2F2F2"/>
<path d="M261.646 219.799L258.838 219.784L258.741 238.029L261.549 238.043L261.646 219.799Z" fill="#24A148"/>
<path d="M261.632 222.511L258.824 222.496L258.812 224.715L261.62 224.73L261.632 222.511Z" fill="#F2F2F2"/>
<path d="M261.576 233.112L258.767 233.097L258.755 235.316L261.564 235.331L261.576 233.112Z" fill="#F2F2F2"/>
<path d="M257.434 219.776L254.625 219.761L254.528 238.006L257.337 238.021L257.434 219.776Z" fill="#24A148"/>
<path d="M257.419 222.488L254.611 222.473L254.599 224.692L257.408 224.707L257.419 222.488Z" fill="#F2F2F2"/>
<path d="M257.363 233.09L254.555 233.075L254.543 235.294L257.351 235.309L257.363 233.09Z" fill="#F2F2F2"/>
<path d="M251.919 219.812L245.719 236.851L248.342 237.909L254.541 220.869L251.919 219.812Z" fill="#24A148"/>
<path d="M250.997 222.344L250.243 224.417L252.866 225.474L253.62 223.402L250.997 222.344Z" fill="#F2F2F2"/>
<path d="M247.395 232.246L246.641 234.318L249.263 235.376L250.017 233.303L247.395 232.246Z" fill="#F2F2F2"/>
<path d="M272.549 238.102L192.508 237.677L192.499 239.402L272.54 239.828L272.549 238.102Z" fill="#F2F2F2"/>
<path d="M242.221 219.695L227.477 219.617L227.38 237.862L242.124 237.94L242.221 219.695Z" fill="#24A148"/>
<path d="M238.573 223.621L231.084 223.581L231.065 227.033L238.554 227.073L238.573 223.621Z" fill="#F2F2F2"/>
<path d="M233.484 190.309L232.08 190.301L231.996 206.08L233.4 206.088L233.484 190.309Z" fill="#F2F2F2"/>
<path d="M232.685 208.55C233.977 208.557 235.031 207.458 235.038 206.097C235.045 204.735 234.003 203.626 232.711 203.619C231.418 203.612 230.365 204.71 230.357 206.072C230.35 207.433 231.392 208.543 232.685 208.55Z" fill="#F2F2F2"/>
<path d="M291.895 131.199L128.303 130.329L131.246 123.934L290.209 124.779L291.895 131.199Z" fill="#24A148"/>
<path d="M295.785 146.013L121.509 145.086L124.452 138.692L294.099 139.593L295.785 146.013Z" fill="#24A148"/>
</svg>
