<svg width="265" height="225" viewBox="0 0 265 225" fill="none" xmlns="http://www.w3.org/2000/svg">
<path d="M133.007 223.836C204.741 224.218 262.918 219.741 262.949 213.837C262.98 207.933 204.854 202.838 133.121 202.457C61.3872 202.076 3.21028 206.553 3.17891 212.456C3.14753 218.36 61.2736 223.455 133.007 223.836Z" fill="#3F3D56"/>
<path d="M207.581 94.1278L46.3289 93.2708L45.6947 212.601L206.947 213.458L207.581 94.1278Z" fill="#F2F2F2"/>
<path d="M100.15 139.088L59.661 138.873L59.2653 213.331L99.7538 213.547L100.15 139.088Z" fill="#3F3D56"/>
<path d="M78.0329 143.438L67.1265 143.38L67.0695 154.09L77.976 154.148L78.0329 143.438Z" fill="#F2F2F2"/>
<path d="M92.6366 143.515L81.7301 143.457L81.6732 154.168L92.5797 154.226L92.6366 143.515Z" fill="#F2F2F2"/>
<path d="M77.9553 158.043L67.0488 157.985L66.9898 169.085L77.8963 169.143L77.9553 158.043Z" fill="#F2F2F2"/>
<path d="M92.559 158.121L81.6525 158.063L81.5935 169.163L92.5 169.221L92.559 158.121Z" fill="#F2F2F2"/>
<path d="M94.7618 184.015C96.1836 184.022 97.3426 182.814 97.3506 181.317C97.3585 179.819 96.2124 178.598 94.7906 178.591C93.3688 178.583 92.2097 179.791 92.2018 181.289C92.1938 182.787 93.34 184.007 94.7618 184.015Z" fill="#24A148"/>
<path d="M193.802 132.518L113.761 132.092L113.385 202.852L193.426 203.278L193.802 132.518Z" fill="#3F3D56"/>
<path d="M224.312 116.683L29.3587 115.647L42.5093 87.0865L45.4524 80.6916L49.3026 72.3291L52.2457 65.9343L55.6575 58.5262L209.256 59.3426L211.209 66.7791L212.895 73.1985L215.099 81.5933L216.785 88.0127L224.312 116.683Z" fill="#3F3D56"/>
<path d="M119.222 161.462L116.414 161.447L116.317 179.691L119.125 179.706L119.222 161.462Z" fill="#24A148"/>
<path d="M119.208 164.174L116.399 164.159L116.388 166.378L119.196 166.393L119.208 164.174Z" fill="#F2F2F2"/>
<path d="M119.151 174.775L116.343 174.76L116.331 176.979L119.14 176.994L119.151 174.775Z" fill="#F2F2F2"/>
<path d="M127.414 161.505L120.626 161.469L120.53 179.714L127.317 179.75L127.414 161.505Z" fill="#24A148"/>
<path d="M127.399 164.217L120.612 164.181L120.6 166.4L127.387 166.436L127.399 164.217Z" fill="#F2F2F2"/>
<path d="M127.343 174.819L120.556 174.783L120.544 177.002L127.331 177.038L127.343 174.819Z" fill="#F2F2F2"/>
<path d="M131.86 161.529L129.052 161.514L128.955 179.759L131.763 179.774L131.86 161.529Z" fill="#24A148"/>
<path d="M131.846 164.241L129.037 164.226L129.026 166.445L131.834 166.46L131.846 164.241Z" fill="#F2F2F2"/>
<path d="M131.79 174.842L128.981 174.828L128.969 177.047L131.778 177.061L131.79 174.842Z" fill="#F2F2F2"/>
<path d="M136.073 161.551L133.265 161.536L133.168 179.781L135.976 179.796L136.073 161.551Z" fill="#24A148"/>
<path d="M136.059 164.263L133.25 164.248L133.238 166.467L136.047 166.482L136.059 164.263Z" fill="#F2F2F2"/>
<path d="M136.002 174.865L133.194 174.85L133.182 177.069L135.99 177.084L136.002 174.865Z" fill="#F2F2F2"/>
<path d="M138.779 161.63L136.145 162.66L142.163 179.764L144.797 178.735L138.779 161.63Z" fill="#24A148"/>
<path d="M139.674 164.173L137.04 165.202L137.772 167.283L140.405 166.253L139.674 164.173Z" fill="#F2F2F2"/>
<path d="M143.17 174.112L140.537 175.141L141.269 177.222L143.902 176.192L143.17 174.112Z" fill="#F2F2F2"/>
<path d="M191.072 161.843L184.285 161.807L184.188 180.052L190.975 180.088L191.072 161.843Z" fill="#24A148"/>
<path d="M191.057 164.555L184.27 164.519L184.259 166.738L191.046 166.774L191.057 164.555Z" fill="#F2F2F2"/>
<path d="M191.001 175.157L184.214 175.121L184.202 177.34L190.989 177.376L191.001 175.157Z" fill="#F2F2F2"/>
<path d="M182.646 161.799L179.838 161.784L179.741 180.029L182.549 180.043L182.646 161.799Z" fill="#24A148"/>
<path d="M182.632 164.511L179.824 164.496L179.812 166.715L182.62 166.73L182.632 164.511Z" fill="#F2F2F2"/>
<path d="M182.576 175.112L179.767 175.097L179.755 177.316L182.564 177.331L182.576 175.112Z" fill="#F2F2F2"/>
<path d="M178.434 161.776L175.625 161.761L175.528 180.006L178.337 180.021L178.434 161.776Z" fill="#24A148"/>
<path d="M178.419 164.488L175.611 164.473L175.599 166.692L178.408 166.707L178.419 164.488Z" fill="#F2F2F2"/>
<path d="M178.363 175.09L175.555 175.075L175.543 177.294L178.351 177.309L178.363 175.09Z" fill="#F2F2F2"/>
<path d="M172.919 161.812L166.719 178.851L169.342 179.909L175.541 162.869L172.919 161.812Z" fill="#24A148"/>
<path d="M171.997 164.344L171.243 166.417L173.866 167.474L174.62 165.402L171.997 164.344Z" fill="#F2F2F2"/>
<path d="M168.395 174.246L167.641 176.318L170.263 177.376L171.017 175.303L168.395 174.246Z" fill="#F2F2F2"/>
<path d="M193.549 180.102L113.508 179.677L113.499 181.402L193.54 181.828L193.549 180.102Z" fill="#F2F2F2"/>
<path d="M163.221 161.695L148.477 161.617L148.38 179.862L163.124 179.94L163.221 161.695Z" fill="#24A148"/>
<path d="M159.573 165.621L152.084 165.581L152.065 169.033L159.554 169.073L159.573 165.621Z" fill="#F2F2F2"/>
<path d="M154.484 132.309L153.08 132.301L152.996 148.08L154.4 148.088L154.484 132.309Z" fill="#F2F2F2"/>
<path d="M153.685 150.55C154.977 150.557 156.031 149.458 156.038 148.097C156.045 146.735 155.003 145.626 153.711 145.619C152.418 145.612 151.365 146.71 151.357 148.072C151.35 149.433 152.392 150.543 153.685 150.55Z" fill="#F2F2F2"/>
<path d="M212.895 73.1985L49.3026 72.3291L52.2457 65.9343L211.209 66.7791L212.895 73.1985Z" fill="#24A148"/>
<path d="M216.785 88.0127L42.5093 87.0865L45.4523 80.6917L215.099 81.5933L216.785 88.0127Z" fill="#24A148"/>
</svg>
