<svg width="414" height="330" viewBox="0 0 414 330" fill="none" xmlns="http://www.w3.org/2000/svg">
<g clip-path="url(#clip0)">
<path d="M231.083 324.775C313.356 324.775 380.052 252.072 380.052 162.388C380.052 72.7034 313.356 0 231.083 0C148.81 0 82.1147 72.7034 82.1147 162.388C82.1147 252.072 148.81 324.775 231.083 324.775Z" fill="#8DD7AA"/>
<path d="M276.613 101.438C298.009 101.438 315.353 82.5316 315.353 59.2089C315.353 35.8862 298.009 16.9794 276.613 16.9794C255.218 16.9794 237.873 35.8862 237.873 59.2089C237.873 82.5316 255.218 101.438 276.613 101.438Z" fill="#F2F2F2"/>
<path d="M114.208 31.5561L115.267 55.621C119.657 62.0029 124.392 69.306 129.066 77.2653L129.733 40.5518L130.101 40.8083C124.695 36.5985 119.199 33.3776 113.84 31.333L114.208 31.5561Z" fill="#24A148"/>
<path d="M114.495 54.503L113.47 31.192C107.45 28.9543 101.61 28.2119 96.2716 29.2497C95.9938 29.3037 95.7208 29.3659 95.4484 29.4289C96.8049 31.0152 104.71 40.3839 114.495 54.503Z" fill="#24A148"/>
<path d="M163.097 83.2133L163.452 83.5829C161.993 80.592 160.447 77.6841 158.813 74.8592L148.859 117.555L148.69 117.394C149.41 119.267 150.094 121.127 150.744 122.975L163.097 83.2133Z" fill="#24A148"/>
<path d="M147.932 58.9397L148.299 59.2595C143.036 52.4621 137.053 46.3682 130.475 41.1049L129.795 78.518C134.144 85.9997 138.038 93.3691 141.477 100.626L147.932 58.9397Z" fill="#24A148"/>
<path d="M75.7231 70.6202C76.2824 76.9262 77.4247 83.1545 79.1326 89.2102L138.493 95.8845C135.394 89.6552 132.195 83.8109 129.09 78.4845L75.8741 71.1289L75.7231 70.6202Z" fill="#24A148"/>
<path d="M81.2922 96.1935L81.1324 95.6857L141.211 101.507C140.485 99.9594 139.751 98.4323 139.009 96.9258L79.4294 90.2269L79.2728 89.7184C79.8733 91.8529 80.5464 94.0113 81.2922 96.1935Z" fill="#24A148"/>
<path d="M158.137 73.9689L158.498 74.3161C155.519 69.2094 152.228 64.3278 148.646 59.7042L142.103 101.954C144.371 106.808 146.425 111.593 148.265 116.309L158.137 73.9689Z" fill="#24A148"/>
<path d="M156.866 144.546C159.254 155.809 160.158 166.458 159.561 176.376C162.921 168.573 175.698 136.246 170.922 106.119L156.866 144.546Z" fill="#24A148"/>
<path d="M92.3133 118.964C95.4922 123.632 98.9545 128.062 102.677 132.225L102.532 131.661L155.973 143.645C154.583 137.356 152.848 131.164 150.777 125.101L92.3133 118.964Z" fill="#24A148"/>
<path d="M114.034 54.8961C103.443 39.6231 95.0865 29.9699 94.9662 29.8317L95.1039 29.51C87.067 31.4989 81.3925 37.4596 78.2703 46.0872L114.034 54.8961Z" fill="#24A148"/>
<path d="M151.238 124.408C151.435 124.982 151.636 125.558 151.827 126.13C153.662 131.611 155.222 137.197 156.5 142.863L170.423 104.8L170.763 105.172C169.881 99.8752 168.388 94.7218 166.318 89.8346C165.497 87.9183 164.637 86.0309 163.739 84.1725L151.238 124.408Z" fill="#24A148"/>
<path d="M128.468 77.4232C123.842 69.5578 119.16 62.3426 114.821 56.0358L78.2368 47.0244L78.1128 46.5211C75.8289 53.0774 74.9938 61.1317 75.6855 70.1276L128.468 77.4232Z" fill="#24A148"/>
<path d="M156.19 144.645L103.139 132.748C125.453 157.718 156.672 176.868 158.665 178.078C159.594 167.077 158.54 155.777 156.19 144.645Z" fill="#24A148"/>
<path d="M150.401 124.076L150.413 124.038C147.863 116.707 144.951 109.531 141.693 102.542L81.4666 96.7066C82.4891 99.6582 83.6448 102.641 84.9335 105.656C86.8105 109.951 89.0431 114.051 91.6033 117.904L150.401 124.076Z" fill="#24A148"/>
<path d="M227.012 112.614L213.747 131.884C213.393 139.852 212.767 148.769 211.71 158.148L233.705 130.336L233.839 130.789C232.138 123.788 229.79 117.487 226.859 112.186L227.012 112.614Z" fill="#24A148"/>
<path d="M213.806 130.487L226.656 111.82C223.329 105.911 219.266 101.279 214.547 98.3666C214.301 98.2151 214.055 98.0731 213.808 97.9322C213.924 100.097 214.531 112.809 213.806 130.487Z" fill="#24A148"/>
<path d="M234.44 186.39L234.498 186.922C235.124 183.604 235.635 180.289 236.029 176.978L203.38 202.941L203.345 202.699C202.804 204.642 202.242 206.551 201.661 208.425L234.44 186.39Z" fill="#24A148"/>
<path d="M236.963 157.152L237.059 157.653C236.983 148.759 235.94 139.905 233.954 131.278L211.539 159.62C210.511 168.407 209.198 176.79 207.6 184.77L236.963 157.152Z" fill="#24A148"/>
<path d="M174.514 115.943C171.255 121.189 168.491 126.78 166.263 132.631L208.077 179.043C209.335 172.091 210.29 165.366 211.015 159.104L174.333 116.44L174.514 115.943Z" fill="#24A148"/>
<path d="M163.84 139.511L164.014 139.009L206.88 185.263C207.226 183.567 207.555 181.88 207.865 180.204L165.897 133.621L166.074 133.12C165.287 135.182 164.543 137.312 163.84 139.511Z" fill="#24A148"/>
<path d="M236.029 175.822L236.104 176.34C236.798 170.336 237.119 164.288 237.066 158.237L207.306 186.228C206.212 191.543 204.995 196.656 203.652 201.569L236.029 175.822Z" fill="#24A148"/>
<path d="M193.755 229.296C189.004 239.631 183.47 248.462 177.207 255.685C184.36 252.011 213.115 235.997 227.064 209.472L193.755 229.296Z" fill="#24A148"/>
<path d="M159.006 164.711C158.723 170.517 158.797 176.336 159.228 182.13L159.447 181.595L193.594 227.982C196.203 222.171 198.49 216.195 200.443 210.086L159.006 164.711Z" fill="#24A148"/>
<path d="M213.221 130.469C214.001 111.342 213.212 98.0972 213.201 97.9072L213.495 97.7552C206.141 93.6992 198.283 94.3447 190.831 98.8188L213.221 130.469Z" fill="#24A148"/>
<path d="M201.204 209.873C201.019 210.452 200.837 211.035 200.649 211.608C198.856 217.106 196.789 222.493 194.458 227.745L227.452 208.109L227.496 208.632C229.917 203.94 231.782 198.933 233.047 193.729C233.536 191.683 233.978 189.631 234.374 187.575L201.204 209.873Z" fill="#24A148"/>
<path d="M211.157 157.854C212.197 148.58 212.812 139.768 213.161 131.894L190.256 99.5174L190.455 99.0435C184.86 102.505 179.504 108.128 174.774 115.537L211.157 157.854Z" fill="#24A148"/>
<path d="M193.176 228.902L159.278 182.855C161.854 217.601 174.694 254.055 175.521 256.373C182.673 248.546 188.473 239.11 193.176 228.902Z" fill="#24A148"/>
<path d="M200.753 209.035L200.785 209.014C203.109 201.595 205.066 194.044 206.645 186.395L163.674 140.028C162.735 143.012 161.88 146.113 161.108 149.331C160.041 153.944 159.362 158.654 159.079 163.401L200.753 209.035Z" fill="#24A148"/>
<path d="M94.7483 138.342L102.579 160.872C108.563 165.462 115.138 170.812 121.839 176.807L112.064 141.666L112.487 141.786C106.151 139.604 100.012 138.393 94.3349 138.254L94.7483 138.342Z" fill="#24A148"/>
<path d="M101.528 160.068L93.9428 138.245C87.5838 138.145 81.819 139.406 77.0362 142.192C76.7874 142.337 76.5454 142.488 76.3041 142.64C78.044 143.691 88.2181 149.938 101.528 160.068Z" fill="#24A148"/>
<path d="M155.891 170.997L156.333 171.229C154.098 168.876 151.803 166.631 149.448 164.495L152.088 208.455L151.882 208.358C153.097 209.896 154.276 211.435 155.417 212.973L155.891 170.997Z" fill="#24A148"/>
<path d="M134.586 153.022L135.025 153.202C128.093 148.511 120.675 144.731 112.927 141.942L122.888 177.752C129.146 183.402 134.939 189.099 140.267 194.842L134.586 153.022Z" fill="#24A148"/>
<path d="M69.2248 188.46C71.5448 194.269 74.3972 199.807 77.7386 204.991L136.085 191.338C131.371 186.458 126.672 181.977 122.208 177.958L69.5126 188.893L69.2248 188.46Z" fill="#24A148"/>
<path d="M81.7726 210.905L81.4766 210.476L140.263 195.769C139.134 194.542 138.003 193.337 136.871 192.154L78.3091 205.858L78.016 205.427C79.1923 207.255 80.4445 209.081 81.7726 210.905Z" fill="#24A148"/>
<path d="M148.552 163.877L148.994 164.085C144.713 160.232 140.199 156.698 135.482 153.508L141.239 195.894C144.772 199.745 148.082 203.604 151.17 207.47L148.552 163.877Z" fill="#24A148"/>
<path d="M167.356 231.426C172.821 241.333 176.701 251.156 178.945 260.789C179.928 252.236 182.912 217.187 169.827 190.144L167.356 231.426Z" fill="#24A148"/>
<path d="M98.7106 228.847C103.057 232.215 107.606 235.262 112.327 237.967L112.029 237.479L166.252 230.87C163.146 225.357 159.74 220.052 156.052 214.984L98.7106 228.847Z" fill="#24A148"/>
<path d="M101.201 160.598C86.7979 149.641 76.1133 143.276 75.9598 143.185L75.9995 142.833C68.9201 147.433 65.2137 155.013 64.6907 164.27L101.201 160.598Z" fill="#24A148"/>
<path d="M156.293 214.17C156.644 214.65 156.998 215.13 157.342 215.609C160.641 220.204 163.709 224.99 166.531 229.948L168.979 189.058L169.408 189.297C167.067 184.557 164.186 180.159 160.832 176.209C159.507 174.663 158.154 173.158 156.773 171.693L156.293 214.17Z" fill="#24A148"/>
<path d="M121.316 177.158C114.686 171.237 108.188 165.952 102.273 161.416L64.9247 165.173L64.664 164.736C64.351 171.741 65.8407 179.682 69.0494 188.004L121.316 177.158Z" fill="#24A148"/>
<path d="M166.741 231.748L112.915 238.308C141.217 254.537 176.337 262.23 178.575 262.71C176.34 251.934 172.133 241.542 166.741 231.748Z" fill="#24A148"/>
<path d="M155.404 214.136L155.404 214.096C150.9 207.984 146.097 202.14 141.015 196.591L82.084 211.334C83.8934 213.797 85.8383 216.244 87.9188 218.677C90.9218 222.13 94.2074 225.276 97.7348 228.078L155.404 214.136Z" fill="#24A148"/>
<path d="M414 276.016C414 295.492 322.093 330 208.719 330C95.3453 330 3.43787 295.492 3.43787 276.016C3.43787 256.54 95.3453 259.472 208.719 259.472C322.093 259.472 414 256.54 414 276.016Z" fill="#3F3D56"/>
<path opacity="0.1" d="M414 276.016C414 295.492 322.093 330 208.719 330C95.3453 330 3.43787 295.492 3.43787 276.016C3.43787 256.54 95.3453 259.472 208.719 259.472C322.093 259.472 414 256.54 414 276.016Z" fill="black"/>
<path d="M208.719 311.28C322.093 311.28 414 295.492 414 276.016C414 256.54 322.093 240.752 208.719 240.752C95.3453 240.752 3.43785 256.54 3.43785 276.016C3.43785 295.492 95.3453 311.28 208.719 311.28Z" fill="#3F3D56"/>
<path opacity="0.1" d="M244.309 239.158C244.309 260.376 217.177 253.813 183.957 253.813C150.738 253.813 124.009 260.376 124.009 239.158C124.009 217.94 151.137 213.325 184.357 213.325C217.577 213.325 244.309 217.94 244.309 239.158Z" fill="black"/>
<path d="M244.309 233.933C244.309 255.151 217.177 248.589 183.957 248.589C150.738 248.589 124.009 255.151 124.009 233.933C124.009 212.715 151.137 208.1 184.357 208.1C217.577 208.1 244.309 212.715 244.309 233.933Z" fill="#3F3D56"/>
<path opacity="0.1" d="M298.18 290.383C325.972 290.383 348.502 285.12 348.502 278.628C348.502 272.136 325.972 266.873 298.18 266.873C270.388 266.873 247.858 272.136 247.858 278.628C247.858 285.12 270.388 290.383 298.18 290.383Z" fill="black"/>
<path d="M0 210.999C0 238.869 16.0392 261.421 35.8606 261.421L0 210.999Z" fill="#3F3D56"/>
<path d="M35.8606 261.421C35.8606 233.238 53.7595 210.433 75.879 210.433L35.8606 261.421Z" fill="#24A148"/>
<path d="M12.993 213.526C12.993 239.999 23.2209 261.421 35.8606 261.421L12.993 213.526Z" fill="#24A148"/>
<path d="M35.8606 261.421C35.8606 225.41 56.5489 196.27 82.1156 196.27L35.8606 261.421Z" fill="#3F3D56"/>
<path d="M28.3165 261.777C28.3165 261.777 33.4021 261.606 34.9348 260.416C36.4675 259.226 42.7578 257.806 43.138 259.714C43.5182 261.622 50.7807 269.204 45.0391 269.254C39.2974 269.305 31.698 268.279 30.1683 267.263C28.6386 266.248 28.3165 261.777 28.3165 261.777Z" fill="#A8A8A8"/>
<path opacity="0.2" d="M45.1415 268.59C39.3999 268.64 31.8005 267.615 30.2708 266.599C29.1058 265.826 28.6416 263.05 28.4862 261.769C28.3787 261.774 28.3165 261.777 28.3165 261.777C28.3165 261.777 28.6386 266.248 30.1683 267.263C31.6981 268.279 39.2974 269.305 45.0391 269.254C46.6965 269.239 47.269 268.597 47.2375 267.645C47.0073 268.22 46.3752 268.579 45.1415 268.59Z" fill="black"/>
</g>
<path d="M310.871 245.783C310.871 247.235 301.861 251.468 291.158 251.468C280.455 251.468 272.115 247.235 272.115 245.783C272.115 244.331 280.79 244.799 291.504 244.799C302.217 244.799 310.871 244.329 310.871 245.783Z" fill="#504F60"/>
<path opacity="0.2" d="M310.871 245.783C310.871 247.235 301.861 251.468 291.158 251.468C280.455 251.468 272.115 247.235 272.115 245.783" fill="black"/>
<path d="M203.083 219.141C204.82 219.35 206.623 219.483 208.287 218.976C208.549 218.9 208.837 218.73 208.811 218.484C208.792 218.394 208.752 218.31 208.693 218.237C208.066 217.354 207.539 216.411 207.121 215.425C207.104 215.373 207.07 215.328 207.024 215.297C206.97 215.278 206.91 215.278 206.856 215.297C206.089 215.486 205.426 215.951 204.663 216.151C204.275 216.251 203.869 216.279 203.468 216.234C203.123 216.197 202.651 215.929 202.337 215.964C202.515 217.039 202.95 218.043 203.083 219.141Z" fill="#24A148"/>
<path d="M235.937 216.416C237.082 215.678 238.269 214.903 238.945 213.763C238.993 213.695 239.021 213.616 239.026 213.535C239.014 213.454 238.981 213.378 238.929 213.313C238.285 212.352 237.456 211.511 236.484 210.835C235.977 211.171 235.519 211.568 235.122 212.016C234.834 212.302 234.037 212.754 234.029 213.19C234.029 213.436 234.333 213.722 234.475 213.928C234.666 214.194 234.847 214.465 235.02 214.74C235.119 214.876 236.028 216.362 235.937 216.416Z" fill="#24A148"/>
<path d="M209.893 222.436C209.913 222.689 209.839 222.942 209.683 223.15C209.561 223.265 209.41 223.35 209.243 223.396C206.814 224.213 204.003 223.194 201.579 223.999C201.082 224.164 200.61 224.402 200.11 224.56C199.513 224.728 198.897 224.831 198.275 224.865C197.419 224.941 196.557 224.99 195.697 225.013C195.044 225.056 194.388 225.002 193.753 224.853C193.436 224.776 193.139 224.638 192.882 224.447C192.625 224.256 192.414 224.016 192.262 223.743C192.131 223.498 192.104 223.215 192.189 222.953C192.227 222.863 192.281 222.78 192.349 222.707C192.513 222.534 192.706 222.386 192.92 222.271L193.813 221.73C194.232 221.451 194.688 221.225 195.168 221.055C195.522 220.947 195.896 220.9 196.255 220.809C197.51 220.465 198.469 219.529 199.36 218.631L200.576 217.413C200.69 217.279 200.834 217.171 200.998 217.096C201.166 217.043 201.346 217.027 201.522 217.049C202.703 217.128 203.843 217.487 204.836 218.092C205.09 218.271 205.364 218.423 205.654 218.545C206.366 218.806 207.281 218.609 207.938 218.279C208.25 218.122 208.182 218.033 208.313 217.753C208.444 217.472 208.764 217.292 209.041 217.548C209.125 217.637 209.185 217.743 209.214 217.858C209.476 218.671 209.377 219.544 209.377 220.396C209.369 220.529 209.387 220.662 209.429 220.79C209.496 220.918 209.576 221.04 209.668 221.154C209.686 221.184 209.703 221.215 209.717 221.247C209.878 221.624 209.938 222.032 209.893 222.436Z" fill="#514E7F"/>
<path d="M209.893 222.436C209.913 222.689 209.839 222.942 209.683 223.15C209.561 223.265 209.41 223.35 209.243 223.396C206.814 224.213 204.003 223.194 201.579 223.999C201.082 224.164 200.61 224.402 200.11 224.56C199.513 224.728 198.897 224.831 198.275 224.865C197.419 224.941 196.557 224.99 195.697 225.013C195.044 225.056 194.388 225.002 193.753 224.853C193.436 224.776 193.139 224.638 192.882 224.447C192.625 224.256 192.414 224.016 192.262 223.743C192.131 223.498 192.104 223.215 192.189 222.953C192.227 222.863 192.281 222.78 192.349 222.707C192.49 222.985 192.592 223.354 192.682 223.487C192.802 223.684 192.966 223.854 193.162 223.987C193.358 224.12 193.582 224.212 193.819 224.257C194.173 224.278 194.529 224.235 194.867 224.132C197.068 223.62 199.407 223.612 201.522 222.837C202.247 222.569 202.939 222.212 203.702 222.05C204.464 221.887 205.274 221.931 206.06 221.87C207.302 221.776 208.504 221.424 209.728 221.24C209.886 221.62 209.943 222.031 209.893 222.436Z" fill="#464353"/>
<path d="M241.499 216.266C241.384 217.133 240.8 217.878 240.158 218.511C239.516 219.143 238.79 219.712 238.279 220.44C237.65 221.343 237.367 222.463 236.55 223.226C236.236 223.503 235.883 223.739 235.502 223.927C235.074 224.164 234.622 224.36 234.152 224.511C232.931 224.877 231.616 224.794 230.34 224.705C229.926 224.701 229.516 224.627 229.13 224.486C228.954 224.402 228.786 224.305 228.627 224.196C228.307 224.011 228.038 223.758 227.841 223.457C227.744 223.294 227.717 223.102 227.765 222.921C227.838 222.721 227.963 222.542 228.129 222.399C228.416 222.119 228.724 221.858 229.051 221.619C229.5 221.347 229.904 221.015 230.251 220.634C230.464 220.334 230.621 220.001 230.715 219.65C230.9 219.036 231.014 218.405 231.053 217.767C231.051 217.344 231.098 216.922 231.192 216.507C231.386 215.858 231.899 215.277 231.841 214.605C231.818 214.509 231.827 214.408 231.868 214.317C231.929 214.246 232.014 214.196 232.109 214.177C232.509 214.027 232.931 213.935 233.361 213.904C233.577 213.89 233.793 213.921 233.994 213.995C234.195 214.069 234.376 214.184 234.524 214.332C234.703 214.534 234.821 214.824 235.083 214.903C235.212 214.936 235.349 214.941 235.481 214.918C236.125 214.856 236.807 214.78 237.315 214.389C237.55 214.191 237.739 213.949 237.869 213.679C238 213.41 238.07 213.117 238.075 212.821C238.075 212.597 237.967 212.363 238.337 212.329C238.614 212.294 238.835 212.575 238.976 212.747C239.487 213.389 240.011 214.061 240.202 214.844C240.277 214.817 240.356 214.803 240.435 214.802C240.599 214.801 240.76 214.836 240.906 214.906C241.051 214.976 241.177 215.078 241.271 215.203C241.48 215.521 241.561 215.898 241.499 216.266Z" fill="#514E7F"/>
<path d="M241.499 216.266C241.384 217.133 240.8 217.878 240.158 218.511C239.516 219.143 238.79 219.712 238.279 220.44C237.65 221.343 237.367 222.463 236.55 223.226C236.236 223.503 235.883 223.739 235.502 223.927C235.074 224.164 234.622 224.36 234.152 224.511C232.931 224.877 231.616 224.794 230.34 224.705C229.926 224.701 229.516 224.627 229.13 224.486C228.954 224.402 228.786 224.305 228.627 224.196C228.307 224.011 228.038 223.758 227.841 223.457C228.086 223.346 228.354 223.286 228.627 223.28C229.193 223.31 229.607 223.812 230.149 223.967C230.922 224.186 231.692 223.674 232.476 223.499C232.986 223.386 233.524 223.415 234.029 223.253C234.451 223.1 234.84 222.878 235.179 222.598C235.645 222.286 236.059 221.911 236.408 221.486C236.699 221.061 236.94 220.608 237.129 220.135C237.543 219.228 238.03 218.353 238.586 217.516C238.668 217.384 238.767 217.262 238.882 217.152C239.005 217.046 239.144 216.973 239.283 216.879C239.807 216.507 240.024 215.895 240.207 215.294C240.257 215.112 240.326 214.934 240.414 214.765C240.578 214.764 240.739 214.799 240.885 214.869C241.03 214.939 241.156 215.041 241.25 215.166C241.476 215.491 241.564 215.883 241.499 216.266Z" fill="#464353"/>
<path d="M186.558 139.538C187.211 139.997 187.747 140.585 188.13 141.26C188.497 141.935 190.612 147.167 190.489 147.927C191.178 147.275 193.895 147.169 194.592 146.517C194.882 146.244 196.452 144.88 196.688 144.563C196.923 144.246 198.674 143.579 198.865 143.244C199.58 142.04 193.792 137.48 194.534 136.292C194.575 136.237 194.596 136.171 194.594 136.105C194.577 136.048 194.544 135.998 194.497 135.959C194.023 135.504 193.394 135.221 192.823 134.884C192.252 134.547 191.702 134.077 191.547 133.457C191.002 133.692 190.502 134.01 190.067 134.397C189.005 135.251 187.961 136.123 186.936 137.013C186.535 137.362 185.759 137.827 185.573 138.327C185.353 138.863 186.176 139.245 186.558 139.538Z" fill="#A1616A"/>
<path d="M195.928 137.601C195.04 138.161 194.21 138.799 193.449 139.506C192.731 140.173 192.05 140.945 191.877 141.878C191.804 142.245 191.814 142.616 191.754 142.988C191.492 144.6 190.009 145.781 189.354 147.29C189.164 147.755 189.025 148.238 188.937 148.729C188.753 149.662 188.653 150.607 188.636 151.555C188.62 152.473 189.579 153.105 189.93 153.961C190.282 154.818 190.376 155.699 190.554 156.577C190.889 158.236 191.505 159.836 192.126 161.426C193.418 164.778 197.605 174.043 198.896 177.397C202.855 176.465 213.393 174.321 216.899 172.355C218.068 171.7 208.79 164.315 210.04 163.805C210.111 163.795 210.179 163.769 210.238 163.73C210.297 163.69 210.345 163.639 210.379 163.579C210.413 163.519 210.432 163.452 210.434 163.385C210.436 163.317 210.421 163.249 210.391 163.188C209.141 158.054 205.232 153.836 203.458 148.838C202.842 147.103 201.737 145.621 200.898 143.972C200.138 142.479 199.732 140.827 198.823 139.407C198.652 139.115 198.427 138.852 198.16 138.632C197.933 138.469 197.688 138.329 197.429 138.216C196.91 137.98 196.428 137.84 195.928 137.601Z" fill="#514E7F"/>
<path d="M186.768 138.954C190.19 138.954 192.965 136.349 192.965 133.134C192.965 129.92 190.19 127.314 186.768 127.314C183.346 127.314 180.571 129.92 180.571 133.134C180.571 136.349 183.346 138.954 186.768 138.954Z" fill="#A1616A"/>
<path d="M193.072 135.868C193.381 135.601 193.769 135.427 194.185 135.371C194.6 135.315 195.025 135.378 195.401 135.553C195.82 135.758 196.187 136.171 196.093 136.604L199.166 136.648C199.655 136.636 200.144 136.678 200.623 136.774C201.105 136.872 201.535 137.126 201.839 137.49C201.875 137.537 201.917 137.593 201.98 137.601C202.031 137.602 202.081 137.586 202.122 137.557C202.595 137.334 203.127 137.248 203.652 137.31C205.313 137.411 206.848 138.191 208.151 139.166C208.385 139.318 208.568 139.531 208.675 139.779C208.782 140.106 208.654 140.517 208.937 140.751C208.937 143.458 209.927 145.988 210.587 148.626C210.705 149.096 211.185 149.512 211.517 149.881C211.929 150.29 212.264 150.761 212.51 151.274C213.071 152.642 212.298 154.252 212.843 155.625C213.074 156.206 213.519 156.683 213.891 157.188C214.382 157.77 214.692 158.469 214.787 159.206C214.811 159.536 214.766 159.868 214.787 160.19C214.822 160.634 214.91 161.072 215.049 161.497C215.273 162.291 215.507 163.084 215.751 163.877C216.15 165.156 216.669 166.537 217.889 167.219C214.942 167.689 211.834 168.149 209.026 167.187C208.634 167.061 208.262 166.887 207.92 166.668C206.906 165.988 206.416 164.827 205.979 163.729C205.491 162.499 204.996 161.246 204.896 159.937C204.897 159.52 204.835 159.106 204.71 158.706C204.425 157.993 203.662 157.562 202.971 157.166C202.19 156.764 201.482 156.247 200.875 155.635C200.573 155.327 200.342 154.964 200.196 154.568C200.05 154.173 199.992 153.754 200.026 153.336C200.078 152.93 200.248 152.539 200.264 152.131C200.28 151.722 200.086 151.254 199.669 151.146C197.523 150.536 196.499 148.149 196.022 146.091C195.816 145.028 195.724 143.948 195.747 142.867L195.718 140.768C195.422 140.515 195.184 140.208 195.018 139.866C194.852 139.524 194.763 139.153 194.754 138.777C194.782 138.558 194.778 138.336 194.741 138.118C194.637 137.851 194.469 137.611 194.248 137.416C193.775 136.96 193.378 136.438 193.072 135.868Z" fill="#464353"/>
<path d="M186.472 142.523C186.401 143.173 186.558 143.839 186.404 144.477C186.344 144.723 186.239 144.969 186.163 145.198C185.93 146.115 186.031 147.079 186.448 147.937C186.865 148.786 187.364 149.598 187.939 150.361C188.134 150.622 188.294 150.903 188.416 151.2C188.515 151.512 188.577 151.833 188.599 152.158C188.751 153.461 188.995 154.753 189.328 156.026C189.621 157.129 192.954 166.554 193.73 167.428C193.87 167.621 194.084 167.758 194.327 167.809C194.502 167.816 194.677 167.782 194.835 167.711L196.407 167.145C196.541 167.107 196.665 167.043 196.772 166.958C196.919 166.796 196.999 166.59 196.997 166.377C197.11 165.176 193.769 155.684 193.344 154.55C192.061 151.124 190.352 147.821 189.516 144.275C189.283 143.291 189.16 141.775 188.392 140.99C188.075 140.665 188.183 140.803 187.803 140.972C187.611 141.051 187.425 141.142 187.247 141.246C187.025 141.391 186.84 141.581 186.706 141.802C186.572 142.023 186.492 142.269 186.472 142.523Z" fill="#464353"/>
<path d="M191.243 149.022C191.665 151.117 192.1 153.206 192.532 155.3L198.684 153.787C198.734 153.181 198.391 152.62 198.16 152.064C197.599 150.743 197.586 149.271 197.133 147.912C196.79 146.879 196.192 145.929 195.87 144.888C195.684 144.282 195.59 143.657 195.406 143.045C195.21 142.443 194.968 141.855 194.683 141.285C194.338 140.459 193.888 139.674 193.342 138.949C192.556 139.225 191.717 139.545 191.269 140.212C191.04 140.588 190.908 141.01 190.887 141.442C190.779 142.739 191.28 144.044 191.115 145.333C190.945 146.561 190.988 147.807 191.243 149.022Z" fill="#24A148"/>
<path d="M198.786 176.881C199.132 178.111 198.632 179.406 198.223 180.624C197.608 182.459 197.188 184.347 196.971 186.259C196.944 186.746 196.84 187.227 196.661 187.684C196.468 188.095 196.137 188.442 195.912 188.834C195.294 189.862 195.31 191.117 195.443 192.294C195.532 193.069 195.666 193.842 195.831 194.605C196.033 195.537 196.282 196.512 195.991 197.422C196.478 197.322 196.808 197.915 196.777 198.38C196.745 198.845 196.586 199.364 196.824 199.765C197.427 199.972 197.432 200.75 197.413 201.353C197.423 202.398 197.564 203.439 197.833 204.454C198.744 208.572 199.712 212.678 200.736 216.773C202.95 217.418 205.536 218.09 207.648 217.197C208.041 217.032 208.434 216.768 208.523 216.37C208.546 216.155 208.517 215.938 208.439 215.735L207.438 212.314C207.194 211.487 206.951 210.633 207.079 209.784C207.176 209.152 207.469 208.47 207.139 207.911C207.027 207.719 206.848 207.569 206.717 207.387C206.193 206.666 206.469 205.701 206.51 204.828C206.527 204.631 206.513 204.434 206.469 204.242C206.397 204.017 206.296 203.802 206.17 203.6C205.343 202.091 204.945 200.407 205.017 198.712C205.048 198.496 205.017 198.275 204.925 198.075C204.862 197.992 204.805 197.905 204.755 197.814C204.716 197.656 204.735 197.49 204.81 197.344C204.51 197.13 204.239 196.882 204.003 196.605C204.148 196.521 204.271 196.406 204.362 196.27C204.454 196.134 204.511 195.98 204.529 195.82C204.548 195.661 204.528 195.499 204.47 195.348C204.413 195.196 204.319 195.059 204.197 194.947C204.304 194.927 204.403 194.879 204.482 194.809C204.562 194.739 204.62 194.65 204.649 194.551C204.678 194.453 204.677 194.348 204.647 194.25C204.617 194.152 204.558 194.063 204.477 193.994C204.349 193.911 204.179 193.874 204.087 193.748C203.945 193.566 204.061 193.313 204.176 193.118L204.786 192.082C205.242 191.312 205.344 190.359 205.834 189.621C206.537 188.546 206.995 187.347 207.448 186.161L209.212 181.591L210.399 182.558C210.794 182.842 211.125 183.197 211.373 183.602C211.542 184.002 211.649 184.423 211.69 184.852C212.125 187.332 213.786 189.483 214.402 191.927C214.538 192.471 214.63 193.042 214.963 193.507C215.082 193.65 215.189 193.801 215.282 193.96C215.369 194.202 215.414 194.455 215.416 194.71C215.471 195.21 215.64 195.693 215.911 196.126C216.182 196.559 216.55 196.933 216.988 197.221C217.572 197.597 218.298 197.856 218.615 198.451C218.679 198.636 218.767 198.812 218.877 198.975C219.16 199.295 219.771 199.332 219.891 199.733C219.959 199.957 219.834 200.226 219.967 200.422C220.043 200.514 220.144 200.584 220.258 200.627L221.964 201.427C223.871 202.322 224.846 204.38 226.253 205.878C226.739 206.367 227.169 206.901 227.537 207.473C228.145 208.494 228.425 209.777 229.452 210.426C229.728 210.561 229.979 210.736 230.196 210.946C230.518 211.344 230.4 211.903 230.429 212.405C230.458 212.907 230.867 213.505 231.375 213.352C231.197 213.96 231.197 214.602 231.375 215.21C233.607 215.103 235.735 214.293 237.417 212.912C237.915 212.503 238.394 211.982 238.4 211.362C238.407 211.254 238.382 211.148 238.326 211.054C238.226 210.933 238.093 210.839 237.941 210.781C236.345 209.969 235.866 208.086 235.059 206.558C234.354 205.209 233.311 204.047 232.439 202.795C230.542 200.1 229.248 196.839 226.379 195.06C225.747 194.669 225.014 194.322 224.696 193.674C224.521 193.313 224.5 192.899 224.361 192.525C224.222 192.151 223.89 191.787 223.465 191.787C223.701 191.245 223.654 190.586 223.669 190C223.686 189.74 223.654 189.48 223.575 189.23C223.466 188.961 223.325 188.705 223.153 188.467C222.405 187.277 222.03 185.911 222.074 184.529C222.095 183.818 222.228 183.085 222 182.406C221.885 182.063 221.683 181.751 221.545 181.421C221.335 180.824 221.225 180.199 221.217 179.57L221.06 177.205C221.036 176.418 220.927 175.635 220.735 174.868C220.211 173.032 219.687 165.341 217.892 164.475C216.097 163.609 213.013 169.527 210.993 169.643C210.1 169.678 209.217 169.838 208.373 170.118C207.029 170.59 205.903 171.471 204.805 172.333L201.089 175.264C200.303 175.872 199.654 176.452 198.786 176.881Z" fill="#464353"/>
<path d="M180.954 126.672C181.771 125.623 183.176 125.067 184.559 125.02C185.943 124.974 187.305 125.382 188.544 125.96C188.91 126.156 189.301 126.306 189.708 126.408C190.363 126.534 191.091 126.366 191.683 126.654C192.469 127.046 192.621 128.042 192.553 128.869C192.485 129.696 192.32 130.614 192.789 131.33C192.955 131.534 193.107 131.749 193.242 131.973C193.444 132.398 193.326 132.891 193.206 133.341C192.899 133.095 192.726 132.723 192.454 132.438C192.181 132.152 191.707 131.96 191.369 132.174C191.031 132.388 191.036 132.777 191.018 133.127C190.999 133.476 190.905 133.895 190.554 134.008C190.407 134.039 190.254 134.028 190.114 133.977C189.974 133.926 189.853 133.836 189.768 133.72C189.168 133.031 189.409 131.931 188.814 131.237C188.476 130.843 187.913 130.651 187.601 130.238C187.355 129.913 187.292 129.499 187.077 129.15C186.862 128.8 186.362 128.544 186.029 128.786C185.916 128.888 185.821 129.006 185.749 129.138C185.541 129.417 185.24 129.622 184.893 129.72C184.545 129.818 184.173 129.804 183.836 129.679C183.578 129.53 183.3 129.417 183.008 129.342C182.817 129.333 182.628 129.374 182.46 129.461C182.293 129.548 182.155 129.677 182.062 129.834C181.874 130.147 181.783 130.504 181.8 130.863C181.8 131.355 181.895 131.879 181.596 132.273C181.482 132.421 181.34 132.548 181.177 132.647C180.739 132.91 180.129 133.087 179.725 132.787C179.588 132.668 179.487 132.517 179.43 132.35C179.373 132.182 179.363 132.004 179.4 131.832C179.479 131.49 179.582 131.153 179.709 130.823C179.94 130.06 179.639 129.202 179.89 128.483C180.154 127.836 180.512 127.226 180.954 126.672Z" fill="#464353"/>
<path d="M184.274 144.034C184.234 144.213 184.254 144.4 184.331 144.568C184.409 144.683 184.515 144.778 184.64 144.846C185.522 145.362 186.524 145.667 187.559 145.734C187.7 145.737 187.838 145.77 187.963 145.833C188.209 145.985 188.225 146.325 188.133 146.596C188.011 146.851 187.947 147.128 187.947 147.408C188.023 147.922 188.673 148.146 189.22 148.222C189.988 148.314 190.829 148.267 191.437 147.816C191.849 147.464 192.163 147.022 192.351 146.529C193.855 143.283 194.382 139.695 195.904 136.459C196.02 136.248 196.097 136.02 196.132 135.785C196.148 135.667 196.131 135.547 196.081 135.438C196.031 135.329 195.951 135.235 195.849 135.164C195.566 135 195.126 135.093 194.935 134.835C194.841 134.704 194.851 134.527 194.767 134.389C194.592 134.096 194.13 134.143 193.816 133.973C193.57 133.85 193.399 133.597 193.124 133.548C192.989 133.54 192.854 133.563 192.73 133.613C192.606 133.664 192.496 133.741 192.409 133.838C191.516 134.621 191.047 135.731 190.549 136.779C189.789 138.386 188.899 139.936 187.887 141.415C188.005 141.243 187.321 139.939 187.054 139.882C186.585 139.794 185.985 140.566 185.73 140.854C184.933 141.763 184.428 142.865 184.274 144.034Z" fill="#24A148"/>
<path opacity="0.1" d="M193.792 134.202C193.604 134.205 193.419 134.248 193.251 134.327C193.083 134.406 192.936 134.52 192.82 134.66C192.54 135.002 192.485 135.455 192.414 135.89C192.176 137.271 191.652 138.593 190.871 139.784" fill="black"/>
<path opacity="0.1" d="M195.129 135.184C194.869 135.19 194.615 135.259 194.392 135.384C194.169 135.51 193.985 135.688 193.858 135.9C193.685 136.287 193.577 136.698 193.538 137.116C193.314 138.044 192.88 138.916 192.268 139.673" fill="black"/>
<path d="M257.398 183.296V180.24C257.397 177.99 256.445 175.832 254.751 174.241C253.057 172.651 250.759 171.757 248.364 171.757H119.851C117.455 171.757 115.158 172.651 113.464 174.241C111.769 175.832 110.817 177.99 110.817 180.24V185.876L257.398 183.296Z" fill="#33323D"/>
<path d="M155.602 168.174C155.602 168.174 155.235 189.55 159.27 196.583C163.305 203.617 165.034 234.214 165.034 234.214C165.034 234.214 207.333 238.324 236.809 229.292C266.285 220.26 329.005 216.566 329.005 216.566L318.436 149.655C318.436 149.655 266.22 146.51 236.516 159.816C206.812 173.123 155.602 168.174 155.602 168.174Z" fill="#8DD070"/>
<path opacity="0.1" d="M155.602 168.174C155.602 168.174 155.235 189.55 159.27 196.583C163.305 203.617 165.034 234.214 165.034 234.214C165.034 234.214 207.333 238.324 236.809 229.292C266.285 220.26 329.005 216.566 329.005 216.566L318.436 149.655C318.436 149.655 266.22 146.51 236.516 159.816C206.812 173.123 155.602 168.174 155.602 168.174Z" fill="black"/>
<path d="M164.964 175.982C164.964 175.982 163.64 193.62 166.96 199.256C170.28 204.892 170.434 230.05 170.434 230.05C170.434 230.05 208.502 231.709 235.58 223.051C262.659 214.393 319.562 208.777 319.562 208.777L313.096 154.057C313.096 154.057 266.013 153.602 238.533 165.789C211.054 177.976 164.964 175.982 164.964 175.982Z" fill="#8DD070"/>
<path opacity="0.1" d="M238.115 213.032C243.531 212.399 246.749 203.04 245.302 192.128C243.855 181.217 238.292 172.885 232.875 173.519C227.459 174.153 224.241 183.512 225.688 194.423C227.135 205.334 232.699 213.666 238.115 213.032Z" fill="black"/>
<path opacity="0.2" d="M289.808 117.059C289.808 117.059 239.081 129.118 215.159 150.344C191.238 171.57 140.88 181.621 140.88 181.621C140.88 181.621 147.514 202.069 153.65 207.601C159.786 213.133 171.425 241.76 171.425 241.76C171.425 241.76 213.024 233.476 238.124 216.377C263.225 199.278 321.724 177.683 321.724 177.683L289.808 117.059Z" fill="black"/>
<path d="M140.117 178.559C140.117 178.559 146.749 199.01 152.88 204.542C159.011 210.074 170.654 238.698 170.654 238.698C170.654 238.698 212.259 230.417 237.362 213.318C262.465 196.219 320.959 174.631 320.959 174.631L289.043 114C289.043 114 238.318 126.059 214.397 147.285C190.475 168.511 140.117 178.559 140.117 178.559Z" fill="#8DD070"/>
<path opacity="0.1" d="M140.117 178.559C140.117 178.559 146.749 199.01 152.88 204.542C159.011 210.074 170.654 238.698 170.654 238.698C170.654 238.698 212.259 230.417 237.362 213.318C262.465 196.219 320.959 174.631 320.959 174.631L289.043 114C289.043 114 238.318 126.059 214.397 147.285C190.475 168.511 140.117 178.559 140.117 178.559Z" fill="black"/>
<path d="M151.57 183.294C151.57 183.294 156.074 200.464 161.075 204.869C166.077 209.275 174.438 233.171 174.438 233.171C174.438 233.171 211.208 223.775 234.152 207.729C257.097 191.683 309.425 169.96 309.425 169.96L285.396 119.727C285.396 119.727 240.438 132.861 218.264 152.382C196.09 171.902 151.57 183.294 151.57 183.294Z" fill="#8DD070"/>
<path opacity="0.1" d="M233.304 197.471C238.252 195.307 238.257 185.472 233.315 175.504C228.374 165.536 220.356 159.21 215.408 161.374C210.46 163.539 210.455 173.374 215.397 183.342C220.339 193.309 228.356 199.636 233.304 197.471Z" fill="black"/>
<path opacity="0.1" d="M260.867 186.296V271.2C260.867 272.165 260.665 273.119 260.272 274.01C259.879 274.901 259.303 275.71 258.577 276.392C257.851 277.074 256.989 277.615 256.04 277.983C255.092 278.352 254.075 278.542 253.049 278.542H118.638C116.565 278.541 114.578 277.767 113.113 276.39C111.648 275.014 110.825 273.147 110.825 271.2V177.737C114.676 179.081 114.676 179.081 118.638 178.968H253.049C255.119 178.968 257.106 179.739 258.571 181.113C260.037 182.487 260.863 184.351 260.867 186.296Z" fill="black"/>
<path d="M260.867 187.377V272.281C260.866 274.228 260.042 276.095 258.576 277.472C257.11 278.848 255.122 279.622 253.049 279.622H118.638C116.565 279.621 114.578 278.847 113.113 277.471C111.648 276.094 110.825 274.227 110.825 272.281V178.815C114.676 180.156 114.676 180.156 118.638 180.045H253.049C255.12 180.045 257.107 180.817 258.572 182.192C260.038 183.567 260.863 185.431 260.867 187.377Z" fill="#504F60"/>
<path opacity="0.1" d="M260.484 218.767V245.919H232.449C228.65 245.871 225.023 244.419 222.354 241.878C219.685 239.338 218.189 235.912 218.189 232.343C218.189 228.773 219.685 225.348 222.354 222.807C225.023 220.266 228.65 218.815 232.449 218.767H260.484Z" fill="black"/>
<path d="M260.867 218.043V245.2H232.832C229.032 245.152 225.406 243.701 222.737 241.16C220.068 238.619 218.571 235.193 218.571 231.624C218.571 228.055 220.068 224.629 222.737 222.088C225.406 219.548 229.032 218.096 232.832 218.048L260.867 218.043Z" fill="#33323D"/>
<path opacity="0.1" d="M234.176 237.637C237.289 237.637 239.812 235.267 239.812 232.344C239.812 229.42 237.289 227.05 234.176 227.05C231.063 227.05 228.54 229.42 228.54 232.344C228.54 235.267 231.063 237.637 234.176 237.637Z" fill="black"/>
<path d="M234.559 236.919C237.671 236.919 240.194 234.549 240.194 231.625C240.194 228.702 237.671 226.332 234.559 226.332C231.446 226.332 228.923 228.702 228.923 231.625C228.923 234.549 231.446 236.919 234.559 236.919Z" fill="#24A148"/>
<path d="M309.53 217.809C309.753 220.076 307.926 222.276 308.458 224.496C308.574 224.971 308.791 225.419 308.87 225.899C309.09 227.218 308.254 228.465 307.455 229.568L300.59 239.028C300.315 239.444 299.986 239.826 299.61 240.165C298.3 241.262 296.33 241.149 294.606 241.477C293.394 241.708 292.25 242.183 291.252 242.87C291.21 242.903 291.184 242.95 291.178 243.001C291.172 243.053 291.188 243.104 291.221 243.145C291.506 243.51 291.883 243.801 292.319 243.993C292.755 244.185 293.235 244.272 293.715 244.245C293.896 244.469 293.715 244.796 293.453 244.956C293.084 245.203 292.578 245.262 292.505 245.847C292.479 246.052 292.523 246.259 292.63 246.438C292.907 246.836 293.337 247.117 293.83 247.223C296.207 247.905 298.774 246.706 300.554 245.075C302.333 243.443 303.609 241.383 305.354 239.722C306.32 238.804 307.418 238.016 308.414 237.126C310.4 235.349 311.943 233.188 313.434 231.025C313.882 230.373 314.333 229.703 314.521 228.948C314.71 228.192 314.621 227.429 314.833 226.698C315.111 225.739 315.858 224.976 316.479 224.171C317.697 222.596 318.509 220.669 318.349 218.73C318.189 216.79 316.908 214.873 314.959 214.214C314.355 213.986 313.688 213.948 313.059 214.105C312.26 214.337 311.671 214.957 311.126 215.55L309.816 216.965C309.489 217.276 309.231 217.644 309.056 218.048C308.972 218.251 308.952 218.472 308.998 218.686C309.045 218.899 309.156 219.096 309.318 219.251" fill="#FBBEBE"/>
<path opacity="0.05" d="M309.53 217.809C309.753 220.076 307.926 222.276 308.458 224.496C308.574 224.971 308.791 225.419 308.87 225.899C309.09 227.218 308.254 228.465 307.455 229.568L300.59 239.028C300.315 239.444 299.986 239.826 299.61 240.165C298.3 241.262 296.33 241.149 294.606 241.477C293.394 241.708 292.25 242.183 291.252 242.87C291.21 242.903 291.184 242.95 291.178 243.001C291.172 243.053 291.188 243.104 291.221 243.145C291.506 243.51 291.883 243.801 292.319 243.993C292.755 244.185 293.235 244.272 293.715 244.245C293.896 244.469 293.715 244.796 293.453 244.956C293.084 245.203 292.578 245.262 292.505 245.847C292.479 246.052 292.523 246.259 292.63 246.438C292.907 246.836 293.337 247.117 293.83 247.223C296.207 247.905 298.774 246.706 300.554 245.075C302.333 243.443 303.609 241.383 305.354 239.722C306.32 238.804 307.418 238.016 308.414 237.126C310.4 235.349 311.943 233.188 313.434 231.025C313.882 230.373 314.333 229.703 314.521 228.948C314.71 228.192 314.621 227.429 314.833 226.698C315.111 225.739 315.858 224.976 316.479 224.171C317.697 222.596 318.509 220.669 318.349 218.73C318.189 216.79 316.908 214.873 314.959 214.214C314.355 213.986 313.688 213.948 313.059 214.105C312.26 214.337 311.671 214.957 311.126 215.55L309.816 216.965C309.489 217.276 309.231 217.644 309.056 218.048C308.972 218.251 308.952 218.472 308.998 218.686C309.045 218.899 309.156 219.096 309.318 219.251" fill="black"/>
<path d="M314.726 276.159C313.227 277.018 311.359 277.07 309.616 276.87C309.336 276.838 309.003 276.819 308.83 277.023C308.568 277.318 308.878 277.761 309.197 277.99C310.225 278.715 311.432 279.182 312.706 279.346C313.842 279.498 314.99 279.569 316.138 279.56C319.282 279.612 322.426 279.661 325.52 279.238C325.704 279.225 325.882 279.176 326.044 279.095C326.244 278.964 326.383 278.766 326.432 278.541C326.644 277.783 326.236 276.971 325.617 276.445C324.999 275.918 324.205 275.625 323.43 275.342L320.705 274.346C320.065 274.112 319.041 273.492 318.347 273.541C317.042 273.629 315.808 275.564 314.726 276.159Z" fill="#3F3D56"/>
<path opacity="0.05" d="M314.726 276.159C313.227 277.018 311.359 277.07 309.616 276.87C309.336 276.838 309.003 276.819 308.83 277.023C308.568 277.318 308.878 277.761 309.197 277.99C310.225 278.715 311.432 279.182 312.706 279.346C313.842 279.498 314.99 279.569 316.138 279.56C319.282 279.612 322.426 279.661 325.52 279.238C325.704 279.225 325.882 279.176 326.044 279.095C326.244 278.964 326.383 278.766 326.432 278.541C326.644 277.783 326.236 276.971 325.617 276.445C324.999 275.918 324.205 275.625 323.43 275.342L320.705 274.346C320.065 274.112 319.041 273.492 318.347 273.541C317.042 273.629 315.808 275.564 314.726 276.159Z" fill="black"/>
<path d="M316.636 242.183C315.501 243.6 314.327 245.237 314.608 246.992C314.76 247.937 315.323 248.771 315.737 249.645C316.298 250.831 316.591 252.106 316.879 253.375C317.304 255.231 317.731 257.092 317.99 258.977C318.286 261.105 316.895 267.265 316.767 269.409C316.735 269.926 316.67 270.484 316.287 270.856C316.138 271.003 315.939 271.122 315.871 271.314C315.831 271.499 315.863 271.691 315.962 271.855C316.602 273.209 317.909 274.218 319.368 274.793C320.828 275.369 324.347 276.363 325.937 276.415C326.147 276.437 326.359 276.411 326.555 276.339C326.767 276.218 326.933 276.038 327.032 275.825C328.172 273.777 327.077 266.497 327.092 264.187C327.108 262.26 327.593 260.345 327.504 258.42C327.43 256.875 326.98 255.364 326.83 253.823C326.568 251.298 327.061 248.761 327.556 246.266C327.934 244.351 328.313 242.436 328.798 240.546C329.094 239.392 329.437 238.228 330.108 237.226C330.632 236.432 331.368 235.767 331.979 235.012C333.673 232.925 334.426 230.296 334.075 227.693C334.038 227.446 330.145 228.62 329.802 228.761C328.401 229.318 327.113 230.096 325.992 231.062C325.091 231.869 324.381 232.947 323.592 233.85C322.476 235.128 321.374 236.415 320.285 237.711C319.044 239.193 317.827 240.683 316.636 242.183Z" fill="#464353"/>
<path opacity="0.05" d="M316.636 242.097C315.501 243.514 314.327 245.153 314.608 246.906C314.76 247.853 315.323 248.687 315.737 249.561C316.298 250.745 316.591 252.022 316.879 253.289C317.304 255.147 317.731 257.008 317.99 258.89C318.286 261.022 316.895 267.179 316.767 269.323C316.735 269.839 316.67 270.401 316.287 270.772C316.138 270.917 315.939 271.035 315.871 271.227C315.83 271.412 315.863 271.605 315.962 271.769C316.602 273.125 317.909 274.131 319.368 274.722C320.828 275.313 324.347 275.827 325.937 275.876C326.147 275.898 326.359 275.872 326.555 275.8C326.767 275.68 326.934 275.501 327.032 275.288C328.172 273.241 327.077 266.429 327.092 264.115C327.108 262.186 327.593 260.274 327.504 258.347C327.43 256.801 326.98 255.29 326.83 253.752C326.568 251.225 327.061 248.687 327.556 246.192C327.934 244.28 328.313 242.365 328.798 240.472C329.094 239.318 329.437 238.154 330.108 237.153C330.632 236.358 331.368 235.693 331.979 234.938C333.674 232.851 334.427 230.222 334.075 227.619C334.038 227.373 330.145 228.547 329.802 228.687C328.402 229.246 327.113 230.025 325.992 230.99C325.091 231.795 324.381 232.873 323.592 233.776C322.476 235.054 321.374 236.342 320.285 237.64C319.044 239.11 317.827 240.596 316.636 242.097Z" fill="black"/>
<path d="M304.012 210.963C307.524 210.963 310.371 208.289 310.371 204.99C310.371 201.691 307.524 199.017 304.012 199.017C300.5 199.017 297.653 201.691 297.653 204.99C297.653 208.289 300.5 210.963 304.012 210.963Z" fill="#FBBEBE"/>
<path d="M309.739 204.739C310.327 205.619 311.097 206.379 312.004 206.974C312.911 207.568 313.937 207.985 315.019 208.199L314.539 209.836C313.712 212.646 312.781 215.619 310.47 217.568C310.733 216.616 310.397 215.599 309.826 214.772C309.255 213.946 308.453 213.296 307.667 212.654L304.007 209.676C303.901 209.595 303.812 209.496 303.745 209.385C303.654 209.175 303.654 208.941 303.745 208.731C304.211 207.367 305.542 206.516 306.627 205.595C307.171 205.119 307.657 204.588 308.076 204.011C308.807 203.031 309.26 204.015 309.739 204.739Z" fill="#FBBEBE"/>
<path d="M295.636 198.985L295.491 197.863C296.495 198.109 297.449 197.307 298.091 196.477C298.733 195.648 299.327 194.671 300.305 194.324C301.491 193.906 302.749 194.57 303.884 195.131C305.154 195.793 306.548 196.219 307.989 196.386C308.219 196.394 308.447 196.428 308.668 196.49C309.407 196.736 309.758 197.607 309.865 198.397C309.973 199.187 309.944 200.026 310.308 200.73C310.57 201.264 311.057 201.66 311.356 202.187C312.142 203.6 311.382 205.531 312.202 206.917L310.164 205.162C309.978 205.002 309.716 204.835 309.509 204.97C309.347 205.079 309.333 205.312 309.268 205.499C309.071 206.046 308.343 206.208 307.816 205.992C307.29 205.775 306.905 205.305 306.506 204.877C305.605 203.878 304.531 202.999 303.273 202.573C302.722 202.38 302.133 202.298 301.546 202.335C300.959 202.371 300.386 202.525 299.867 202.785C298.916 203.289 298.219 204.466 297.053 204.508C295.455 204.564 294.789 201.769 294.05 200.664C294.321 200.473 294.511 200.198 294.588 199.889C294.664 199.579 294.623 199.254 294.47 198.97C294.577 198.929 295.612 198.813 295.636 198.985Z" fill="#464353"/>
<path d="M216.983 164.066C216.472 164.493 216 164.959 215.571 165.459C215.139 165.966 214.909 166.599 214.921 167.248C214.923 167.437 214.987 167.62 215.104 167.773C215.164 167.846 215.247 167.899 215.341 167.926C215.435 167.953 215.535 167.952 215.628 167.923C215.734 167.872 215.824 167.798 215.89 167.706C216.167 167.394 216.461 167.095 216.771 166.81C216.883 166.704 217.033 166.594 217.185 166.633C217.253 166.656 217.314 166.694 217.363 166.744C217.539 166.887 217.667 167.075 217.732 167.285C217.824 167.662 217.591 168.038 217.326 168.334C217.062 168.629 216.75 168.912 216.642 169.284C216.602 169.382 216.602 169.491 216.642 169.589C216.693 169.66 216.764 169.716 216.847 169.751C217.222 169.945 217.638 170.059 218.065 170.086C218.493 170.112 218.921 170.05 219.32 169.904C219.844 169.704 220.31 169.362 220.85 169.185C221.084 169.125 221.31 169.043 221.526 168.939C221.681 168.843 221.813 168.718 221.916 168.573C222.019 168.428 222.09 168.266 222.126 168.095C222.194 167.753 222.208 167.404 222.165 167.059C222.1 165.722 221.795 164.405 221.264 163.163C221.233 163.083 221.181 163.012 221.112 162.956C221.033 162.911 220.942 162.888 220.85 162.89C220.179 162.823 219.079 162.501 218.432 162.735C218.205 162.851 218.01 163.015 217.861 163.212C217.74 163.338 216.983 163.901 216.983 164.066Z" fill="#A1616A"/>
<path d="M216.771 163.51C216.771 162.91 215.985 161.46 217.234 161.364C217.234 160.722 216.268 160.323 216.448 159.641C216.506 159.415 216.71 159.23 216.734 158.999C216.813 158.342 215.55 157.985 215.759 157.355C215.838 157.109 216.116 156.966 216.176 156.723C216.317 156.154 215.235 155.901 215.214 155.317C215.214 155.121 215.332 154.936 215.322 154.739C215.322 154.493 215.094 154.306 214.968 154.092C214.641 153.543 214.8 152.694 214.203 152.411C214.599 152.443 214.727 151.892 214.565 151.555C214.402 151.217 214.069 150.925 214.067 150.551C214.086 150.415 214.086 150.278 214.067 150.142C213.957 149.783 213.331 149.753 213.226 149.404C213.212 149.27 213.208 149.135 213.213 149C213.171 148.722 212.867 148.545 212.581 148.466C212.285 148.419 211.999 148.323 211.738 148.183C211.554 148.053 211.342 147.836 211.145 147.937C211.072 147.979 211.035 148.058 210.98 148.117C210.744 148.375 210.294 148.262 209.998 148.072C209.123 147.514 208.688 146.512 208.502 145.535C208.316 144.558 208.321 143.549 208.088 142.582C208.017 142.28 207.922 141.984 207.805 141.696C207.705 141.45 207.386 141.063 207.365 140.815C207.317 140.249 208.565 140.635 209.039 140.692C209.499 140.734 209.954 140.816 210.399 140.938C210.873 141.106 211.337 141.298 211.79 141.511C213.682 142.296 215.966 142.392 217.486 143.711C217.986 144.145 218.408 144.713 219.058 144.91C219.356 144.964 219.65 145.035 219.938 145.124C220.659 145.442 220.772 146.34 221.165 146.99C221.288 147.161 221.396 147.342 221.487 147.531C221.563 147.753 221.598 147.986 221.592 148.22L221.647 149.925C221.736 152.783 221.825 155.647 221.5 158.487C221.395 159.425 221.238 160.39 221.534 161.29C221.613 161.536 221.723 161.768 221.796 162.016C221.861 162.308 221.894 162.605 221.896 162.902L221.938 164.007C221.952 164.093 221.932 164.181 221.88 164.253C221.836 164.287 221.785 164.31 221.73 164.323C221.675 164.335 221.618 164.336 221.563 164.325C219.925 164.187 218.269 163.321 216.724 163.845" fill="#464353"/>
<path d="M291.501 248.414C302.203 248.414 310.879 247.236 310.879 245.783C310.879 244.33 302.203 243.152 291.501 243.152C280.799 243.152 272.123 244.33 272.123 245.783C272.123 247.236 280.799 248.414 291.501 248.414Z" fill="#504F60"/>
<path d="M308.173 245.911C307.832 244.541 307.62 243.337 307.62 243.337C307.62 243.337 307.698 241.846 306.986 240.726V240.352V237.596C307.189 237.095 307.437 236.612 307.727 236.151C308.251 235.285 307.727 232.11 307.727 232.11C307.727 232.11 305.77 227.634 306.244 224.794C306.719 221.954 302.225 212.183 302.225 212.183C302.253 211.241 302.394 210.305 302.647 209.393C302.695 209.201 302.714 209.004 302.705 208.807C302.705 208.782 302.705 208.76 302.705 208.736C302.705 208.711 302.705 208.75 302.705 208.758C302.636 206.885 301.059 203.376 301.059 203.376L301.271 196.687C301.271 196.687 302.277 192.749 300.637 187.446C300.064 185.597 299.697 184.118 299.464 182.977C299.437 182.849 299.411 182.73 299.39 182.605C302.767 182.113 305.348 181.719 305.348 181.719C305.348 181.719 303.388 174.019 302.065 172.67C300.742 171.321 299.684 167.086 299.684 167.086C299.684 167.086 298.995 161.65 300.108 160.06C301.222 158.47 301.379 155.728 301.379 155.728C301.379 155.728 303.918 154.006 304.237 153.226C304.557 152.446 305.084 150.723 305.084 149.81C305.084 148.897 304.767 148.087 304.871 147.595C304.976 147.103 304.13 145.284 304.554 144.418C304.664 144.152 304.721 143.869 304.722 143.584C304.723 143.575 304.723 143.567 304.722 143.559C304.726 142.801 304.651 142.044 304.499 141.3C303.765 140.717 302.908 140.287 301.984 140.037L301.929 139.831L301.785 139.289C301.705 139.239 301.621 139.193 301.536 139.151V138.954L301.512 138.172L301.911 136.415C302.697 133.358 298.35 132.903 298.35 132.903C298.086 132.434 297.648 132.073 297.119 131.889C296.246 131.601 296.974 136.486 297.381 136.811C297.687 137.057 298.636 138.578 299.094 139.331L299.167 139.454C299.096 139.515 299.029 139.58 298.968 139.651L299.133 140.712L299.16 140.874C298.871 141.21 298.638 141.584 298.465 141.984C298.465 141.984 299.251 142.801 299.102 143.707C298.953 144.612 299.346 145.761 299.364 145.823C299.317 145.771 298.759 145.205 298.201 145.343C297.643 145.481 296.084 145.921 296.084 145.921C296.084 145.921 294.92 146.113 295.036 146.355C295.151 146.596 294.25 147.654 294.25 147.654L291.121 144.868C291.09 144.784 291.056 144.701 291.029 144.622C290.902 144.22 290.814 143.808 290.767 143.392C291.108 143.315 291.443 143.216 291.768 143.094C292.097 142.988 292.394 142.809 292.633 142.572C292.95 142.22 293.01 141.743 293.139 141.305C293.385 140.448 293.925 139.688 294.299 138.873C294.934 137.497 295.138 135.979 294.889 134.498C294.841 134.041 294.676 133.602 294.409 133.218C293.898 132.558 292.971 132.29 292.298 131.763C291.624 131.237 291.189 130.432 290.403 130.041C289.693 129.684 288.831 129.726 288.029 129.849C286.464 130.091 284.959 130.605 283.594 131.365C283.138 131.611 282.635 131.914 282.111 131.822C281.66 131.746 281.325 131.409 281.042 131.084C281.045 131.071 281.049 131.058 281.055 131.045C281.042 131.033 281.031 131.02 281.021 131.005C280.689 131.697 280.523 132.448 280.533 133.206C280.533 133.324 280.533 133.452 280.549 133.557V133.681C280.549 133.715 280.549 133.749 280.549 133.781C280.549 133.834 280.541 133.886 280.525 133.936C280.459 134.087 280.359 134.222 280.232 134.333C280.136 134.435 280.048 134.545 279.97 134.66C279.97 134.621 279.996 134.581 280.012 134.539C279.812 134.813 279.699 135.135 279.687 135.467C279.672 135.709 279.757 135.947 279.923 136.132C280.08 136.275 280.251 136.403 280.434 136.516C280.372 136.84 280.34 137.17 280.339 137.5C280.345 138.479 280.62 139.439 281.137 140.289C281.654 141.139 282.395 141.849 283.29 142.351C283.326 142.432 283.36 142.515 283.394 142.597C283.795 143.581 284.097 144.738 283.963 145.796C283.963 145.872 283.939 145.951 283.926 146.027C283.913 146.104 283.848 146.108 283.814 146.15C283.814 146.15 278.644 146.2 277.429 145.166C276.213 144.132 274.358 147.693 274.358 147.693C274.358 147.693 272.505 148.031 272.133 147.693C271.761 147.356 269.594 147.647 269.594 147.647C268.707 146.905 267.551 146.509 266.364 146.539C265.644 146.026 264.85 145.611 264.006 145.309L263.948 145.289C263.575 145.161 263.177 145.114 262.782 145.151C262.782 145.151 260.241 143.182 259.499 142.119C258.758 141.056 255.228 137.131 255.213 137.114V136.924L255.173 136.353C255.069 136.369 254.963 136.377 254.856 136.378C254.838 136.321 254.812 136.255 254.786 136.178C254.582 135.621 254.332 135.081 254.036 134.562C254.036 134.562 254.036 133.84 254.259 133.658C254.482 133.476 254.167 130.831 254.167 130.831C254.167 130.831 251.877 125.803 249.826 129.556C249.826 129.556 245.948 131.985 249.202 134.815C249.202 134.815 250.512 135.406 250.685 135.873C250.806 136.176 251.246 137.025 251.542 137.596L251.676 137.842L251.639 137.872L251.686 138.344L251.707 138.526C251.094 138.853 250.677 139.178 250.78 139.422C250.96 139.839 251.084 140.275 251.149 140.721C251.149 140.721 255.65 146.017 256.232 148.279C256.232 148.279 268.303 155.017 272.272 155.497L271.57 158.856C271.468 159.768 271.415 160.684 271.413 161.6C271.465 162.321 270.936 165.595 270.936 165.595C270.936 165.595 270.247 170.408 269.665 171.083C269.084 171.757 269.188 174.644 269.188 174.644C269.051 176.026 268.788 177.394 268.402 178.734C267.821 180.562 268.242 182.826 268.242 182.826C268.242 182.826 266.233 187.158 271.049 184.222C271.049 184.222 273.407 184.084 276.137 183.995C276.137 184.079 276.137 184.165 276.137 184.241C276.137 184.571 276.137 184.928 276.118 185.302C276.082 187.783 276.066 191.209 276.187 193.788C276.399 198.36 277.882 207.409 277.882 207.409V211.964C277.786 212.392 277.739 212.827 277.74 213.264C277.709 214.867 278.163 216.445 279.05 217.814L279.422 220.846C279.422 220.846 280.292 222.844 280.308 224.045C280.305 224.142 280.292 224.239 280.271 224.333C280.237 224.486 280.223 224.642 280.229 224.799C280.18 226.177 281.063 229.474 281.063 229.474C281.063 229.474 281.115 232.794 281.644 232.989C282.098 233.154 281.039 234.901 280.725 235.403C280.716 235.372 280.71 235.341 280.706 235.309L280.641 235.408C280.532 235.677 280.476 235.962 280.476 236.249C280.446 236.476 280.485 236.706 280.589 236.913C280.693 237.119 280.857 237.294 281.063 237.416C282.069 237.994 282.608 238.474 281.754 238.666C281.44 238.712 281.129 238.774 280.822 238.851C280.822 238.814 280.79 238.774 280.777 238.74C280.657 238.784 280.556 238.866 280.492 238.972C280.429 239.078 280.406 239.201 280.429 239.321C280.437 239.711 280.544 240.094 280.74 240.438C281.587 242.22 282.174 242.899 282.174 242.899L282.58 242.857C282.52 243.003 282.44 243.141 282.344 243.268C282.189 243.475 281.984 243.643 281.746 243.76C281.525 243.885 281.277 243.965 281.021 243.994C280.734 244.003 280.452 244.068 280.194 244.186C279.936 244.304 279.707 244.472 279.522 244.678C278.998 245.321 278.663 246.194 279.705 246.962L283.491 248.193C283.491 248.193 290.005 248.988 289.659 247.614C289.313 246.241 289.104 245.04 289.104 245.04C289.132 244.202 288.952 243.369 288.58 242.606C288.511 242.482 288.434 242.362 288.349 242.247L288.58 242.225C288.58 242.225 289.056 239.19 289.691 238.614C289.837 238.482 289.871 238.368 289.837 238.299C289.903 238.135 289.735 238.039 289.523 237.982L289.476 238.103C289.268 238.06 289.057 238.038 288.844 238.036C288.844 238.036 288.632 236.449 289.321 235.87C289.377 235.805 289.417 235.729 289.44 235.647C289.463 235.566 289.468 235.481 289.455 235.398C289.46 235.18 289.435 234.963 289.381 234.751C289.375 234.764 289.367 234.778 289.358 234.79C289.012 233.348 287.838 231.057 287.838 231.057C287.838 231.057 287.786 229.615 288.21 229.036C288.635 228.458 288.155 221.191 288.155 221.191C288.155 221.191 288.315 217.679 287.838 216.042C287.361 214.406 288.42 212.479 288.42 212.479C288.42 212.479 288.42 212.442 288.42 212.375V212.351L288.36 211.797C288.358 211.809 288.358 211.82 288.36 211.832C288.252 210.901 288.05 209.216 287.901 208.438C287.689 207.33 287.956 202.039 287.956 202.039L288.907 199.775L290.602 203.676L292.402 208.873C292.402 208.873 293.293 209.971 293.314 211.088C293.314 211.142 293.314 211.197 293.314 211.251C293.3 211.366 293.293 211.482 293.293 211.598C293.261 212.254 293.453 212.904 293.841 213.451C293.841 213.451 294.318 215.912 295.059 216.53C295.801 217.147 295.801 218.358 295.801 218.358C295.801 218.358 296.699 221.922 297.111 222.542C297.467 223.068 297.485 224.511 297.483 224.961C297.483 225.042 297.483 225.089 297.483 225.089C297.483 225.089 297.608 226.364 297.603 227.432C297.603 227.565 297.603 227.693 297.603 227.813C297.604 227.804 297.604 227.795 297.603 227.786C297.603 228.078 297.566 228.369 297.493 228.652L297.477 228.702C297.477 228.64 297.477 228.581 297.496 228.522C297.312 229.247 297.224 229.991 297.234 230.737C297.21 232.017 297.417 233.533 298.243 234.428C299.673 235.969 300.572 235.777 300.572 235.777C300.572 235.777 299.885 237.701 299.036 238.088C299.004 238.102 298.974 238.12 298.947 238.142C298.947 238.103 298.932 238.066 298.926 238.029C298.832 238.125 298.76 238.238 298.714 238.362C298.669 238.486 298.652 238.617 298.664 238.747C298.604 239.594 299.173 240.962 299.712 241.6C299.913 241.784 300.159 241.919 300.428 241.993C300.385 242.022 300.34 242.047 300.294 242.07C300.2 242.118 300.103 242.162 300.003 242.2C299.865 242.255 299.72 242.291 299.571 242.306C299.284 242.313 299.001 242.378 298.743 242.496C298.484 242.614 298.256 242.782 298.072 242.99C297.548 243.63 297.213 244.504 298.256 245.271L302.042 246.502C302.042 246.502 308.513 247.282 308.173 245.911Z" fill="url(#paint0_linear)"/>
<path d="M283.305 248.185L279.637 246.955C278.626 246.187 278.948 245.313 279.459 244.671C279.635 244.466 279.855 244.299 280.106 244.181C280.356 244.063 280.631 243.997 280.911 243.987C281.159 243.957 281.398 243.877 281.61 243.753C281.843 243.634 282.042 243.466 282.192 243.261C282.459 242.862 282.604 242.401 282.608 241.929C282.608 241.929 286.633 240.822 287.733 241.929C287.93 242.13 288.094 242.356 288.221 242.601C288.586 243.366 288.765 244.197 288.745 245.035C288.745 245.035 288.949 246.236 289.282 247.609C289.615 248.983 283.305 248.185 283.305 248.185Z" fill="#2D293D"/>
<path d="M301.237 246.487L297.569 245.257C296.558 244.489 296.88 243.615 297.391 242.975C297.566 242.77 297.785 242.602 298.036 242.484C298.286 242.366 298.56 242.3 298.84 242.291C298.985 242.277 299.126 242.241 299.259 242.185C299.356 242.147 299.451 242.103 299.542 242.055C300.567 241.526 300.54 240.226 300.54 240.226C300.54 240.226 304.562 239.119 305.665 240.226C305.813 240.376 305.942 240.541 306.05 240.719C306.74 241.838 306.664 243.332 306.664 243.332C306.664 243.332 306.868 244.536 307.188 245.906C307.507 247.277 301.237 246.487 301.237 246.487Z" fill="#2D293D"/>
<path opacity="0.1" d="M287.736 241.927C287.932 242.127 288.097 242.354 288.223 242.599L282.197 243.256C282.465 242.857 282.609 242.396 282.614 241.924C282.614 241.924 286.636 240.819 287.736 241.927Z" fill="black"/>
<path opacity="0.1" d="M306.056 240.723V241.784C305.118 243.234 300.582 242.916 299.264 242.19C299.361 242.152 299.456 242.108 299.547 242.06C300.572 241.531 300.546 240.231 300.546 240.231C300.546 240.231 304.567 239.124 305.671 240.231C305.818 240.381 305.947 240.546 306.056 240.723Z" fill="black"/>
<path d="M306.771 236.151C306.491 236.613 306.251 237.096 306.056 237.596V241.398C305.029 242.985 299.702 242.456 298.981 241.59C298.261 240.724 297.509 238.469 298.319 238.078C299.128 237.687 299.804 235.767 299.804 235.767C299.804 235.767 298.932 235.959 297.548 234.418C296.165 232.878 296.576 229.462 296.833 228.645C297.09 227.828 296.833 225.084 296.833 225.084C296.833 225.084 296.885 223.157 296.477 222.532C296.068 221.907 295.195 218.348 295.195 218.348C295.195 218.348 295.195 217.145 294.478 216.52C293.76 215.895 293.298 213.439 293.298 213.439C292.879 212.825 292.698 212.094 292.788 211.369C292.94 210.165 291.915 208.866 291.915 208.866L290.173 203.666L288.533 199.768L287.61 202.029C287.61 202.029 287.348 207.323 287.56 208.428C287.773 209.533 288.084 212.471 288.084 212.471C288.084 212.471 287.06 214.396 287.521 216.032C287.982 217.669 287.815 221.186 287.815 221.186C287.815 221.186 288.276 228.451 287.864 229.029C287.453 229.607 287.505 231.052 287.505 231.052C287.505 231.052 289.602 235.285 288.941 235.863C288.281 236.441 288.48 238.029 288.48 238.029C288.48 238.029 289.913 238.029 289.3 238.607C288.687 239.185 288.223 242.217 288.223 242.217L282.027 242.899C282.027 242.899 281.461 242.227 280.641 240.438C279.821 238.649 280.793 238.851 281.618 238.656C282.443 238.462 281.922 237.984 280.947 237.406C279.973 236.828 280.539 235.528 280.539 235.528C280.539 235.528 282.024 233.171 281.511 232.979C280.997 232.787 280.947 229.465 280.947 229.465C280.947 229.465 279.923 225.527 280.18 224.459C280.436 223.391 279.36 220.851 279.36 220.851L279.001 217.819C277.904 216.099 277.504 214.065 277.874 212.09V207.414C277.874 207.414 276.438 198.368 276.234 193.795C276.103 190.866 276.139 186.87 276.181 184.377C276.208 182.979 276.234 182.051 276.234 182.051L298.368 179.885C298.368 179.885 298.347 180.845 298.769 182.974C298.997 184.116 299.351 185.595 299.906 187.443C301.494 192.737 300.522 196.682 300.522 196.682L300.315 203.373C300.315 203.373 302.262 207.847 301.853 209.388C301.606 210.303 301.467 211.24 301.439 212.183C301.439 212.183 305.794 221.954 305.333 224.794C304.871 227.634 306.766 232.11 306.766 232.11C306.766 232.11 307.285 235.285 306.771 236.151Z" fill="#464353"/>
<path opacity="0.05" d="M294.116 211.078L300.855 210.234C300.855 210.234 297.037 213.894 294.116 211.078Z" fill="black"/>
<path opacity="0.1" d="M299.88 204.05C299.88 204.05 300.111 206.289 298.651 207.131C298.651 207.131 301.264 206.747 299.88 204.05Z" fill="black"/>
<path opacity="0.1" d="M299.466 196.928C299.466 196.928 293.833 201.284 291.784 200.922C289.735 200.56 299.466 196.928 299.466 196.928Z" fill="black"/>
<path opacity="0.1" d="M285.763 213.121C285.763 213.121 281.484 214.034 281.356 215.649C281.228 217.263 285.763 213.121 285.763 213.121Z" fill="black"/>
<path opacity="0.05" d="M286.704 233.193C286.704 233.193 280.659 234.251 282.375 234.972C284.091 235.693 286.911 236.272 286.911 236.272C286.911 236.272 288.863 236.368 286.704 233.193Z" fill="black"/>
<g opacity="0.05">
<path opacity="0.05" d="M281.154 236.119C281.002 236.03 280.874 235.91 280.778 235.767C280.682 235.625 280.622 235.464 280.601 235.297L280.539 235.398C280.539 235.398 279.975 236.697 280.95 237.273C281.06 237.34 281.167 237.406 281.264 237.47C281.445 237.438 281.639 237.413 281.825 237.369C282.65 237.177 282.129 236.697 281.154 236.119Z" fill="black"/>
<path opacity="0.05" d="M288.941 235.733C289.109 235.59 289.104 235.221 289.002 234.748C288.74 235.12 288.664 235.701 288.658 236.141C288.722 235.988 288.818 235.849 288.941 235.733Z" fill="black"/>
<path opacity="0.05" d="M288.011 211.79C287.789 212.359 287.651 212.954 287.602 213.559C287.719 213.141 287.876 212.735 288.071 212.343L288.011 211.79Z" fill="black"/>
<path opacity="0.05" d="M301.856 209.265C301.896 209.092 301.914 208.915 301.911 208.738C301.835 209.097 301.782 209.43 301.743 209.722C301.777 209.572 301.814 209.43 301.856 209.265Z" fill="black"/>
<path opacity="0.05" d="M287.867 228.901C287.951 228.783 287.998 228.384 288.019 227.83C287.829 228.259 287.729 228.717 287.723 229.181C287.759 229.083 287.807 228.989 287.867 228.901Z" fill="black"/>
<path opacity="0.05" d="M289.125 237.977C288.807 238.942 288.571 239.93 288.42 240.93L282.223 241.602C282.223 241.602 281.657 240.93 280.837 239.141C280.771 239.003 280.713 238.862 280.662 238.718C280.29 238.878 280.138 239.24 280.63 240.295C281.45 242.077 282.019 242.756 282.019 242.756L288.216 242.082C288.216 242.082 288.677 239.05 289.29 238.472C289.604 238.194 289.41 238.048 289.125 237.977Z" fill="black"/>
<path opacity="0.05" d="M280.95 229.334C280.95 229.334 281 232.654 281.513 232.846C281.775 232.297 281.946 231.775 281.715 231.689C281.191 231.497 281.152 228.175 281.152 228.175C281.152 228.175 280.127 224.237 280.384 223.169C280.641 222.101 279.564 219.561 279.564 219.561L279.205 216.53C278.109 214.809 277.709 212.775 278.078 210.8V206.125C278.078 206.125 276.643 197.078 276.438 192.505C276.307 189.577 276.344 185.58 276.386 183.087C276.386 182.637 276.401 182.238 276.409 181.901L276.234 181.918C276.234 181.918 276.205 182.844 276.181 184.244C276.139 186.737 276.1 190.734 276.234 193.66C276.438 198.232 277.871 207.281 277.871 207.281V211.957C277.504 213.931 277.904 215.964 279.001 217.684L279.357 220.716C279.357 220.716 280.434 223.265 280.177 224.326C279.92 225.387 280.95 229.334 280.95 229.334Z" fill="black"/>
<path opacity="0.05" d="M299.191 240.305C298.688 239.621 298.352 238.84 298.209 238.019C297.577 238.555 298.303 240.637 298.995 241.464C299.71 242.331 305.039 242.86 306.069 241.27V240.354C304.672 241.641 299.867 241.125 299.191 240.305Z" fill="black"/>
<path opacity="0.05" d="M306.978 234.866C306.697 235.329 306.457 235.812 306.26 236.311V236.993C306.378 236.747 306.543 236.417 306.784 236.028C306.946 235.649 307.023 235.243 307.009 234.834C307.009 234.834 306.986 234.857 306.978 234.866Z" fill="black"/>
<path opacity="0.05" d="M299.506 235.627C299.7 235.256 299.869 234.874 300.011 234.482C300.011 234.482 299.139 234.674 297.755 233.134C296.749 232.014 296.692 229.898 296.836 228.515C296.574 229.334 296.167 232.75 297.551 234.29C298.455 235.297 299.139 235.563 299.506 235.627Z" fill="black"/>
<path opacity="0.05" d="M296.833 224.954C296.923 225.902 296.957 226.854 296.935 227.806C296.961 227.656 296.996 227.507 297.04 227.36C297.302 226.541 297.04 223.799 297.04 223.799C297.04 223.799 297.092 221.872 296.681 221.247C296.27 220.622 295.413 217.059 295.413 217.059C295.413 217.059 295.413 215.855 294.695 215.23C293.977 214.605 293.516 212.149 293.516 212.149C293.092 211.536 292.907 210.805 292.992 210.079C293.146 208.876 292.122 207.576 292.122 207.576L290.38 202.379L288.739 198.481L287.815 200.745C287.815 200.745 287.815 201.03 287.783 201.483L288.532 199.645L290.173 203.536L291.915 208.733C291.915 208.733 292.939 210.033 292.785 211.236C292.7 211.962 292.885 212.693 293.309 213.306C293.309 213.306 293.77 215.767 294.488 216.387C295.206 217.007 295.203 218.215 295.203 218.215C295.203 218.215 296.076 221.776 296.484 222.399C296.893 223.022 296.833 224.954 296.833 224.954Z" fill="black"/>
</g>
<path d="M301.135 136.407L300.75 138.164L300.774 138.947L300.789 139.523L298.651 139.73L298.413 139.314C297.97 138.561 297.05 137.03 296.754 136.794C296.359 136.484 295.654 131.596 296.492 131.886C297.009 132.074 297.432 132.434 297.682 132.898C297.682 132.898 301.892 133.351 301.135 136.407Z" fill="#FFCDD3"/>
<path opacity="0.1" d="M300.789 139.523L298.651 139.73L298.413 139.314C298.7 139.006 299.093 138.802 299.523 138.735C299.953 138.669 300.394 138.745 300.771 138.949L300.789 139.523Z" fill="black"/>
<path d="M301.329 140.475L298.51 141.088L298.45 140.694L298.29 139.634C298.29 139.634 299.406 138.236 301.02 139.284L301.161 139.823L301.329 140.475Z" fill="#24A148"/>
<path d="M255.661 136.599L252.65 138.115L252.388 137.584C252.103 137.02 251.676 136.171 251.558 135.861C251.38 135.393 250.125 134.803 250.125 134.803C246.98 131.975 250.727 129.544 250.727 129.544C252.713 125.791 254.919 130.818 254.919 130.818C254.919 130.818 255.228 133.469 255.011 133.646C254.794 133.823 254.794 134.549 254.794 134.549C255.08 135.069 255.323 135.61 255.519 136.166C255.611 136.434 255.661 136.599 255.661 136.599Z" fill="#FFCDD3"/>
<path opacity="0.1" d="M255.661 136.599L252.65 138.115L252.388 137.584C252.813 137.249 254.319 136.107 254.814 136.154C255.051 136.181 255.29 136.187 255.527 136.171C255.611 136.434 255.661 136.599 255.661 136.599Z" fill="black"/>
<path d="M255.967 137.453L252.585 139.018L252.517 138.337L252.469 137.864C252.469 137.864 254.429 136.287 255.008 136.348C255.301 136.388 255.599 136.388 255.891 136.348L255.931 136.919L255.967 137.453Z" fill="#24A148"/>
<path d="M292.937 148.08C292.937 148.08 278.191 149.642 280.947 148.801C282.865 148.213 283.628 147.078 283.788 145.798C283.919 144.733 283.625 143.584 283.24 142.599C282.893 141.726 282.454 140.887 281.93 140.096C281.93 140.096 293.196 134.274 290.946 139.567C290.599 140.368 290.383 141.213 290.306 142.075C290.239 142.931 290.337 143.792 290.597 144.615C291.022 145.95 291.832 147.149 292.937 148.08Z" fill="#FFCDD3"/>
<path opacity="0.1" d="M290.938 139.56C290.591 140.36 290.375 141.206 290.298 142.068C289.237 142.907 288.074 142.85 286.578 142.85C285.43 142.85 284.157 143.111 283.24 142.592C282.893 141.718 282.454 140.88 281.93 140.089C281.93 140.089 293.194 134.266 290.938 139.56Z" fill="black"/>
<path d="M286.379 143.219C289.746 143.219 292.476 140.655 292.476 137.493C292.476 134.33 289.746 131.766 286.379 131.766C283.012 131.766 280.282 134.33 280.282 137.493C280.282 140.655 283.012 143.219 286.379 143.219Z" fill="#FFCDD3"/>
<path opacity="0.1" d="M292.937 148.08C292.937 148.08 278.191 149.642 280.947 148.801C282.865 148.213 283.628 147.078 283.788 145.798C284.521 145.06 285.996 144.511 286.932 144.226C287.796 143.953 288.73 143.938 289.604 144.184C289.948 144.281 290.275 144.424 290.576 144.607C291.006 145.948 291.823 147.15 292.937 148.08Z" fill="black"/>
<path opacity="0.1" d="M301.329 140.475L298.51 141.088L298.45 140.694C298.751 140.305 299.174 140.012 299.659 139.856C300.144 139.7 300.669 139.689 301.161 139.823L301.329 140.475Z" fill="black"/>
<path opacity="0.1" d="M255.967 137.453L252.585 139.018L252.517 138.337C253.612 137.783 254.751 137.309 255.923 136.917L255.967 137.453Z" fill="black"/>
<path opacity="0.1" d="M298.769 182.979C293.055 183.835 284.932 184.928 283.643 184.559C282.572 184.254 279.155 184.286 276.181 184.382C276.208 182.984 276.234 182.056 276.234 182.056L298.368 179.89C298.368 179.89 298.347 180.85 298.769 182.979Z" fill="black"/>
<path d="M304.465 181.719C304.465 181.719 285.661 184.751 283.643 184.18C281.626 183.609 271.263 184.227 271.263 184.227C266.6 187.163 268.546 182.831 268.546 182.831C268.546 182.831 268.138 180.57 268.701 178.741C269.079 177.399 269.338 176.029 269.474 174.646C269.474 174.646 269.372 171.757 269.935 171.083C270.498 170.408 271.166 165.597 271.166 165.597C271.166 165.597 271.677 162.324 271.628 161.603C271.578 160.882 271.78 158.859 271.78 158.859L272.448 155.49C268.604 155.01 256.921 148.272 256.921 148.272C256.358 146.01 252.003 140.716 252.003 140.716C251.94 140.271 251.819 139.835 251.644 139.417C251.338 138.647 255.949 137.106 255.949 137.106C255.949 137.106 259.381 141.044 260.099 142.112C260.817 143.18 263.275 145.144 263.275 145.144C263.657 145.107 264.042 145.154 264.401 145.282L264.462 145.299C265.285 145.603 266.058 146.017 266.754 146.529C267.91 146.504 269.031 146.901 269.88 147.637C269.88 147.637 271.976 147.346 272.34 147.684C272.704 148.021 274.491 147.684 274.491 147.684C274.491 147.684 276.284 144.122 277.463 145.156C278.642 146.19 283.643 146.14 283.643 146.14C284.309 145.309 285.931 144.713 286.945 144.418C287.81 144.146 288.743 144.131 289.617 144.376C289.994 144.482 290.349 144.648 290.665 144.868L293.707 147.659C293.707 147.659 294.577 146.598 294.475 146.359C294.373 146.121 295.499 145.926 295.499 145.926C295.499 145.926 296.985 145.493 297.548 145.348C298.112 145.203 298.628 145.776 298.675 145.828C298.657 145.766 298.271 144.597 298.413 143.711C298.554 142.826 297.797 141.989 297.797 141.989C299.589 137.849 303.637 141.314 303.637 141.314C303.637 141.314 304.098 143.576 303.69 144.442C303.281 145.309 304.098 147.137 303.996 147.62C303.894 148.102 304.203 148.919 304.203 149.834C304.203 150.75 303.679 152.48 303.383 153.25C303.087 154.021 300.616 155.753 300.616 155.753C300.616 155.753 300.462 158.497 299.385 160.084C298.308 161.672 298.984 167.101 298.984 167.101C298.984 167.101 300.008 171.336 301.29 172.685C302.571 174.033 304.465 181.719 304.465 181.719Z" fill="#3F3D56"/>
<path opacity="0.1" d="M277.054 150.051C277.054 150.051 276.491 148.464 275.977 148.328C275.467 148.152 274.971 147.943 274.491 147.703L274.822 147.11C274.822 147.11 276.745 147.602 277.054 148.136C277.363 148.67 277.054 150.051 277.054 150.051Z" fill="black"/>
<path opacity="0.1" d="M266.754 146.539C266.652 147.031 262.091 147.452 262.091 147.452L264.396 145.282L264.454 145.301C265.281 145.607 266.056 146.024 266.754 146.539Z" fill="black"/>
<path d="M253.559 140.318C253.785 140.318 253.968 140.146 253.968 139.934C253.968 139.722 253.785 139.55 253.559 139.55C253.334 139.55 253.151 139.722 253.151 139.934C253.151 140.146 253.334 140.318 253.559 140.318Z" fill="#575988"/>
<path d="M254.083 141.088C254.309 141.088 254.492 140.916 254.492 140.704C254.492 140.492 254.309 140.32 254.083 140.32C253.858 140.32 253.675 140.492 253.675 140.704C253.675 140.916 253.858 141.088 254.083 141.088Z" fill="#575988"/>
<path d="M254.597 141.799C254.823 141.799 255.006 141.627 255.006 141.415C255.006 141.203 254.823 141.031 254.597 141.031C254.371 141.031 254.188 141.203 254.188 141.415C254.188 141.627 254.371 141.799 254.597 141.799Z" fill="#575988"/>
<path d="M255.134 142.567C255.36 142.567 255.543 142.395 255.543 142.183C255.543 141.971 255.36 141.799 255.134 141.799C254.908 141.799 254.725 141.971 254.725 142.183C254.725 142.395 254.908 142.567 255.134 142.567Z" fill="#575988"/>
<path d="M303.433 142.454C303.617 142.454 303.766 142.314 303.766 142.141C303.766 141.969 303.617 141.829 303.433 141.829C303.249 141.829 303.1 141.969 303.1 142.141C303.1 142.314 303.249 142.454 303.433 142.454Z" fill="#575988"/>
<path d="M303.485 143.165C303.669 143.165 303.818 143.025 303.818 142.853C303.818 142.68 303.669 142.54 303.485 142.54C303.302 142.54 303.153 142.68 303.153 142.853C303.153 143.025 303.302 143.165 303.485 143.165Z" fill="#575988"/>
<path d="M303.53 143.874C303.714 143.874 303.863 143.734 303.863 143.561C303.863 143.389 303.714 143.249 303.53 143.249C303.346 143.249 303.197 143.389 303.197 143.561C303.197 143.734 303.346 143.874 303.53 143.874Z" fill="#575988"/>
<path opacity="0.1" d="M277.072 163.094C277.022 163.038 288.574 176.738 297.54 168.821C297.548 168.823 283.381 170.627 277.072 163.094Z" fill="black"/>
<path opacity="0.1" d="M270.443 170.216C270.443 170.216 277.355 170.393 278.078 172.261V174.206C277.882 174.308 277.66 174.362 277.435 174.362C277.21 174.362 276.989 174.308 276.792 174.206C276.095 173.851 271.916 171.858 270.443 172.818V170.216Z" fill="black"/>
<path d="M270.572 170.216C270.572 170.216 277.182 170.386 277.874 172.168V174.019C277.686 174.117 277.474 174.168 277.258 174.168C277.043 174.168 276.831 174.117 276.643 174.019C275.977 173.684 271.981 171.781 270.572 172.697V170.216Z" fill="#3F3D56"/>
<path opacity="0.1" d="M274.216 156.12C274.922 157.655 275.822 159.105 276.897 160.439C278.065 161.913 279.481 163.199 281.089 164.246C281.089 164.246 274.332 157.011 274.216 156.12Z" fill="black"/>
<path opacity="0.1" d="M271.955 148.577C271.955 148.577 273.108 153.253 276.079 154.84L271.955 148.577Z" fill="black"/>
<path opacity="0.1" d="M270.187 149.049C270.158 148.963 269.162 152.741 274.017 154.84C274.017 154.84 271.955 154.183 270.187 149.049Z" fill="black"/>
<path opacity="0.1" d="M300.367 145.914C300.291 145.914 302.762 147.391 303.436 148.08C303.436 148.08 301.827 145.816 300.367 145.914Z" fill="black"/>
<path d="M284.731 142.683C284.732 142.808 284.76 142.931 284.814 143.045C284.869 143.159 284.948 143.261 285.046 143.345C285.145 143.429 285.261 143.493 285.387 143.533C285.513 143.573 285.646 143.587 285.779 143.576C287.636 143.684 289.573 143.761 291.281 143.084C291.601 142.976 291.889 142.797 292.119 142.562C292.423 142.21 292.484 141.733 292.607 141.295C292.848 140.438 293.361 139.678 293.731 138.863C294.356 137.487 294.565 135.976 294.336 134.495C294.288 134.041 294.128 133.604 293.87 133.218C293.377 132.556 292.478 132.288 291.826 131.761C291.174 131.234 290.754 130.43 289.992 130.038C289.305 129.679 288.464 129.723 287.691 129.846C286.171 130.089 284.714 130.603 283.4 131.36C282.957 131.606 282.472 131.909 281.964 131.818C281.519 131.739 281.194 131.387 280.916 131.057C280.559 131.845 280.409 132.701 280.478 133.555C280.498 133.68 280.493 133.808 280.465 133.932C280.401 134.081 280.304 134.216 280.18 134.328C279.721 134.82 279.436 135.62 279.889 136.127C280.085 136.346 280.389 136.466 280.581 136.69C280.924 137.091 280.808 137.675 280.801 138.187C280.782 138.365 280.83 138.545 280.937 138.694C281.036 138.78 281.157 138.842 281.289 138.871C281.421 138.901 281.559 138.898 281.689 138.863C281.948 138.79 282.221 138.766 282.491 138.792C282.775 138.879 283.02 139.052 283.188 139.284C284.034 140.32 284.369 141.447 284.731 142.683Z" fill="#2D293D"/>
<g opacity="0.1">
<path opacity="0.1" d="M292.337 142.127C292.107 142.362 291.819 142.541 291.498 142.648C289.78 143.32 287.846 143.244 285.996 143.141C285.798 143.142 285.601 143.101 285.422 143.02C285.139 142.865 285.032 142.54 284.946 142.245C284.584 141.014 284.251 139.885 283.392 138.858C283.226 138.622 282.981 138.444 282.695 138.354C282.425 138.33 282.153 138.354 281.893 138.425C281.763 138.461 281.626 138.464 281.494 138.434C281.362 138.405 281.241 138.344 281.141 138.258C281.034 138.109 280.986 137.93 281.005 137.751C281.005 137.234 281.128 136.656 280.785 136.255C280.594 136.031 280.29 135.91 280.093 135.689C279.965 135.525 279.886 135.332 279.866 135.131C279.845 134.929 279.883 134.725 279.975 134.542C279.648 135.034 279.509 135.652 279.889 136.075C280.085 136.294 280.389 136.415 280.58 136.639C280.924 137.042 280.808 137.623 280.801 138.135C280.78 138.313 280.828 138.493 280.934 138.642C281.034 138.729 281.155 138.791 281.288 138.82C281.42 138.85 281.558 138.847 281.689 138.812C281.948 138.738 282.221 138.714 282.491 138.74C282.775 138.827 283.02 139 283.187 139.232C284.044 140.259 284.38 141.386 284.741 142.621C284.784 142.925 284.945 143.203 285.194 143.401C285.374 143.483 285.572 143.523 285.771 143.52C287.629 143.628 289.565 143.707 291.273 143.027C291.594 142.921 291.882 142.741 292.112 142.506C292.227 142.367 292.316 142.21 292.374 142.043C292.376 142.075 292.358 142.102 292.337 142.127Z" fill="black"/>
<path opacity="0.1" d="M280.478 133.781C280.561 133.697 280.624 133.599 280.664 133.491C280.688 133.366 280.688 133.239 280.664 133.114C280.613 132.413 280.71 131.709 280.95 131.042L280.916 131.005C280.557 131.792 280.407 132.648 280.478 133.501C280.486 133.594 280.486 133.688 280.478 133.781Z" fill="black"/>
</g>
<path opacity="0.1" d="M283.643 146.153C283.643 146.153 291.26 147.103 291.944 146.027L283.643 146.153Z" fill="black"/>
<path opacity="0.1" d="M298.45 143.192C298.45 143.192 302.684 143.192 303.614 144.688L298.45 143.192Z" fill="black"/>
<path d="M322.138 276.122C320.882 277.177 319.25 277.75 317.566 277.727C317.136 277.727 316.541 277.803 316.539 278.207C316.549 278.325 316.592 278.439 316.664 278.537C317.196 279.369 318.036 279.988 319.023 280.276C319.94 280.537 320.919 280.493 321.876 280.446L324.666 280.311C325.19 280.284 325.714 280.259 326.238 280.198C326.762 280.136 327.333 280.035 327.881 279.952C329.227 279.772 330.587 279.713 331.945 279.774C332.306 279.787 332.731 279.774 332.946 279.528C333.161 279.282 333.051 278.812 332.969 278.443C332.802 277.683 332.969 276.885 332.815 276.122C332.553 274.784 331.319 273.757 329.967 273.273C328.709 272.825 326.482 272.31 325.292 273.058C324.037 273.843 323.27 275.155 322.138 276.122Z" fill="#3F3D56"/>
<path d="M324.91 231.268C325.156 232.368 326.291 233.21 326.322 234.332C326.351 235.233 325.667 235.989 325.175 236.759C324.71 237.557 324.319 238.39 324.003 239.249C323.076 241.488 321.925 243.638 320.566 245.673C319.911 246.657 319.177 247.708 319.327 248.852C319.431 249.387 319.632 249.902 319.921 250.373L321.886 254.04C322.317 254.772 322.654 255.549 322.89 256.356C323.06 257.052 323.076 257.773 323.175 258.482C323.485 260.731 324.609 262.995 323.943 265.176C323.885 265.363 323.681 265.589 323.521 265.459C324.171 266.598 324.692 267.745 324.643 269.037C324.616 269.714 324.396 270.42 324.661 271.05C324.774 271.314 324.97 271.56 324.968 271.843C324.968 272.03 324.876 272.204 324.855 272.387C324.8 272.906 325.308 273.339 325.835 273.504C326.361 273.669 326.935 273.656 327.467 273.807C328.489 274.094 329.22 274.921 330.087 275.495C330.977 276.07 332.026 276.391 333.106 276.418C333.26 276.433 333.415 276.404 333.551 276.334C333.628 276.271 333.69 276.193 333.732 276.105C333.775 276.018 333.797 275.923 333.797 275.827C333.845 275.367 333.771 274.904 333.583 274.477C333.395 274.051 333.098 273.674 332.718 273.381C332.551 273.283 332.414 273.148 332.317 272.987C332.268 272.845 332.255 272.694 332.28 272.547C332.438 270.529 332.4 268.503 332.165 266.493C332.059 265.855 332.025 265.209 332.063 264.566C332.118 264.029 332.291 263.497 332.228 262.963C332.165 262.429 331.874 261.942 331.704 261.428C331.4 260.512 331.484 259.528 331.442 258.571C331.389 256.907 330.983 255.273 330.58 253.649C330.42 253.011 330.244 252.344 329.765 251.872C329.356 251.471 328.696 251.087 328.851 250.553C328.936 250.356 329.064 250.177 329.225 250.028C329.415 249.805 329.554 249.547 329.634 249.271C329.715 248.995 329.734 248.707 329.692 248.424C329.864 248.465 330.046 248.449 330.207 248.378C330.368 248.307 330.498 248.186 330.575 248.035C333.766 246.62 336.339 243.79 337.486 240.652C337.554 240.419 337.658 240.197 337.796 239.993C338.092 239.604 338.605 239.436 339.061 239.222C340.492 238.546 341.479 237.278 342.386 236.038C342.91 235.319 343.434 234.576 343.67 233.729C343.794 233.182 343.853 232.623 343.845 232.063L343.927 229.172C343.944 228.981 343.925 228.789 343.869 228.606C343.791 228.434 343.678 228.278 343.536 228.148C342.665 227.282 341.52 226.703 340.272 226.494C339.433 226.354 338.576 226.381 337.727 226.314C336.082 226.186 334.458 225.707 332.812 225.822C330.226 226.002 327.923 227.685 326.705 229.836C326.278 230.594 325.827 231.254 324.91 231.268Z" fill="#464353"/>
<path d="M310.552 212.466C310.587 212.913 310.522 213.361 310.363 213.783C310.161 214.187 309.656 214.502 309.213 214.337C309.347 214.054 308.993 213.731 308.663 213.766C308.5 213.801 308.349 213.873 308.223 213.975C308.097 214.077 307.998 214.206 307.937 214.352C307.718 214.765 307.645 215.233 307.727 215.688C307.832 216.254 308.181 216.798 308.089 217.366C308.016 217.839 307.646 218.309 307.843 218.747C307.97 218.947 308.13 219.127 308.317 219.281C308.576 219.58 308.702 219.962 308.671 220.346C308.639 220.731 308.451 221.09 308.147 221.348L313.104 221.442C312.923 222.219 313.295 223.014 313.719 223.706C314.908 225.607 316.55 227.224 318.516 228.429C320.481 229.634 322.717 230.396 325.049 230.653C324.923 230.722 324.815 230.817 324.732 230.93C324.65 231.043 324.595 231.172 324.572 231.308C324.55 231.443 324.559 231.582 324.6 231.713C324.641 231.845 324.713 231.966 324.81 232.068C325.214 232.445 325.898 232.398 326.403 232.154C326.909 231.911 327.305 231.507 327.766 231.195C328.58 230.653 329.573 230.401 330.567 230.486C331.188 230.542 331.79 230.732 332.414 230.761C334.248 230.852 335.82 229.612 337.586 229.105C338.872 228.734 340.332 228.734 341.411 227.978C341.878 227.653 342.26 227.119 342.124 226.593C342.011 226.29 341.833 226.012 341.6 225.778C340.979 225.022 340.612 224.114 340.167 223.255C339.284 221.555 338.069 220.026 336.585 218.747C335.465 217.827 334.278 216.982 333.032 216.217C332.731 216.008 332.41 215.826 332.073 215.673C331.638 215.493 331.156 215.407 330.763 215.181C330.182 214.836 329.846 214.229 329.398 213.739C328.416 212.661 326.906 212.166 325.696 211.32C324.884 210.751 324.166 210.003 323.196 209.73C322.725 209.595 322.224 209.585 321.753 209.452C320.681 209.147 319.9 208.253 318.85 207.892C318.019 207.606 317.102 207.68 316.23 207.579C315.246 207.465 314.307 207.129 313.492 206.599C313.229 206.399 312.935 206.238 312.619 206.122C311.291 205.743 311.183 208.066 311.047 208.871C310.871 210.067 310.552 211.256 310.552 212.466Z" fill="#24A148"/>
<path d="M311.846 220.258C312.069 222.527 310.245 224.725 310.777 226.947C310.89 227.419 311.107 227.87 311.186 228.35C311.409 229.666 310.57 230.914 309.771 232.017L302.906 241.479C302.631 241.894 302.302 242.276 301.926 242.616C300.616 243.711 298.646 243.6 296.922 243.925C295.711 244.159 294.567 244.634 293.568 245.318C293.523 245.351 293.494 245.399 293.486 245.452C293.478 245.505 293.493 245.558 293.526 245.601C293.811 245.965 294.188 246.257 294.623 246.449C295.059 246.641 295.538 246.728 296.018 246.701C296.199 246.923 296.018 247.253 295.769 247.412C295.402 247.659 294.894 247.715 294.821 248.303C294.796 248.508 294.84 248.714 294.946 248.894C295.224 249.291 295.654 249.571 296.146 249.677C298.523 250.361 301.091 249.16 302.87 247.528C304.649 245.897 305.925 243.837 307.67 242.178C308.637 241.258 309.734 240.473 310.73 239.582C312.716 237.802 314.262 235.644 315.75 233.481C316.198 232.829 316.651 232.159 316.837 231.404C317.023 230.648 316.937 229.883 317.149 229.152C317.427 228.195 318.174 227.429 318.795 226.627C320.013 225.052 320.828 223.125 320.665 221.183C320.503 219.242 319.224 217.327 317.275 216.667C316.67 216.442 316.005 216.404 315.375 216.559C314.576 216.79 313.987 217.411 313.442 218.006L312.132 219.419C311.813 219.732 311.563 220.1 311.395 220.504C311.311 220.707 311.291 220.929 311.337 221.143C311.384 221.357 311.495 221.554 311.657 221.71" fill="#FBBEBE"/>
<path d="M315.326 210.95C314.424 211 313.431 211.083 312.795 211.689C312.528 211.967 312.312 212.284 312.155 212.629C311.537 213.813 310.934 215.05 310.89 216.37C310.853 217.423 311.178 218.454 311.348 219.495C311.49 220.361 311.131 221.245 311.063 222.121C312.181 221.799 313.659 221.36 314.673 220.817C315.365 220.445 316.033 220.022 316.788 219.785C317.864 219.448 319.67 220.032 320.694 220.499C320.749 219.825 320.209 218.648 320.267 217.972C320.275 217.687 320.329 217.405 320.427 217.135C320.58 216.85 320.762 216.579 320.969 216.325C321.359 215.73 321.539 215.034 321.482 214.336C321.425 213.639 321.134 212.977 320.652 212.444C319.743 211.485 318.32 211.125 316.963 210.968C316.108 210.875 315.247 210.847 314.388 210.884" fill="#24A148"/>
<defs>
<linearGradient id="paint0_linear" x1="278.036" y1="248.414" x2="278.036" y2="128.156" gradientUnits="userSpaceOnUse">
<stop stop-color="#808080" stop-opacity="0.25"/>
<stop offset="0.54" stop-color="#808080" stop-opacity="0.12"/>
<stop offset="1" stop-color="#808080" stop-opacity="0.1"/>
</linearGradient>
<clipPath id="clip0">
<rect width="414" height="330" fill="white"/>
</clipPath>
</defs>
</svg>
